<svg width="18" height="18" viewBox="0 0 18 18" fill="none" xmlns="http://www.w3.org/2000/svg">
    <path d="M9 1C4.58892 1 1 4.58862 1 9C1 13.4114 4.58892 17 9 17C13.4111 17 17 13.4114 17 9C17 4.58862 13.4111 1 9 1ZM9 16.3846C4.92831 16.3846 1.61538 13.0717 1.61538 9C1.61538 4.92831 4.92831 1.61538 9 1.61538C13.0717 1.61538 16.3846 4.92831 16.3846 9C16.3846 13.0717 13.0717 16.3846 9 16.3846Z" fill="#1C5F9E" stroke="#1C5F9E" stroke-width="0.3"/>
    <path d="M12.8462 8.69231H9.30773V5.30769C9.30773 5.13754 9.16988 5 9.00004 5C8.83019 5 8.69235 5.13754 8.69235 5.30769V8.69231H5.15388C4.98404 8.69231 4.84619 8.82985 4.84619 9C4.84619 9.17015 4.98404 9.30769 5.15388 9.30769H8.69235V13C8.69235 13.1702 8.83019 13.3077 9.00004 13.3077C9.16988 13.3077 9.30773 13.1702 9.30773 13V9.30769H12.8462C13.016 9.30769 13.1539 9.17015 13.1539 9C13.1539 8.82985 13.016 8.69231 12.8462 8.69231Z" fill="#1C5F9E" stroke="#1C5F9E" stroke-width="0.3"/>
</svg>
