<svg width="8" height="8" viewBox="0 0 8 8" fill="none" xmlns="http://www.w3.org/2000/svg">
    <path d="M6.12724 3.45775L4.4958 5.08903L4.4958 0.772727C4.4958 0.345924 4.14983 0 3.72308 0C3.29633 0 2.95035 0.345924 2.95035 0.772727L2.95035 5.08903L1.31912 3.45775C1.0174 3.15602 0.528108 3.15602 0.226332 3.45775C-0.0754439 3.75958 -0.0754439 4.24876 0.226332 4.55054L3.17666 7.50086C3.32754 7.6518 3.52531 7.72727 3.72303 7.72727C3.92074 7.72727 4.11856 7.6518 4.26945 7.50097L7.21998 4.55064C7.5217 4.24892 7.52175 3.75963 7.22003 3.45775C6.9182 3.15602 6.42896 3.15602 6.12724 3.45775Z" fill="#002E5A"/>
</svg>
