<svg width="18" height="18" viewBox="0 0 18 18" fill="none" xmlns="http://www.w3.org/2000/svg">
    <g clip-path="url(#clip0_24_35)">
        <path d="M17.0064 13.4589L16.5732 13.3758C16.3701 13.3368 16.2102 13.2039 16.1346 13.011C16.0587 12.8184 16.0857 12.6123 16.2081 12.4455L16.4802 12.0747C16.5678 11.9553 16.5552 11.7897 16.4502 11.685L15.8625 11.0976C15.7608 10.9959 15.6009 10.9809 15.4821 11.0613L15.117 11.3085C14.9457 11.4252 14.7387 11.4441 14.5485 11.361C14.3589 11.2785 14.232 11.1135 14.2005 10.9086L14.1306 10.4541C14.1084 10.308 13.9824 10.2 13.8345 10.2H13.0035C12.8598 10.2 12.7359 10.3023 12.7089 10.4436L12.6015 11.0031C12.5634 11.2017 12.4341 11.3601 12.2472 11.4375C12.06 11.5158 11.8569 11.4942 11.6892 11.3808L11.2176 11.0616C11.0988 10.9812 10.9392 10.9962 10.8372 11.0979L10.2495 11.6853C10.1445 11.79 10.1319 11.9553 10.2195 12.075L10.4916 12.4458C10.614 12.6126 10.641 12.8187 10.5651 13.0113C10.4895 13.2042 10.3296 13.3371 10.1265 13.3761L9.69331 13.4592C9.55201 13.4865 9.44971 13.6101 9.44971 13.7538V14.5848C9.44971 14.7327 9.55771 14.8587 9.70411 14.8812L10.1586 14.9511C10.3635 14.9826 10.5282 15.1095 10.611 15.2991C10.6938 15.489 10.6746 15.696 10.5585 15.8676L10.3113 16.2327C10.2306 16.3515 10.2459 16.5114 10.3476 16.6131L10.935 17.2008C11.0397 17.3055 11.2047 17.3181 11.3247 17.2308L11.6955 16.9587C11.862 16.8366 12.069 16.8093 12.261 16.8852C12.4539 16.9608 12.5868 17.1207 12.6258 17.3238L12.7089 17.757C12.7362 17.8977 12.8598 18 13.0038 18H13.8348C13.9827 18 14.1087 17.892 14.1312 17.7456L14.1804 17.4261C14.2119 17.2197 14.346 17.0493 14.5383 16.9695C14.7315 16.8897 14.9466 16.9158 15.1146 17.0391L15.3753 17.2305C15.495 17.3181 15.6603 17.3055 15.765 17.2005L16.3524 16.6128C16.4541 16.5111 16.4694 16.3515 16.3887 16.2324L16.1415 15.8673C16.0254 15.696 16.0062 15.4887 16.089 15.2988C16.1715 15.1092 16.3365 14.9823 16.5414 14.9508L16.9959 14.8809C17.142 14.8584 17.2503 14.7324 17.2503 14.5845V13.7535C17.25 13.6098 17.1477 13.4862 17.0064 13.4589ZM16.65 14.3274L16.4499 14.3583C16.0437 14.4207 15.7032 14.6829 15.5391 15.0594C15.3747 15.4362 15.4143 15.864 15.6447 16.2039L15.753 16.3638L15.5226 16.5942L15.4695 16.5552C15.1305 16.3074 14.697 16.2546 14.3088 16.4151C13.9206 16.5759 13.6512 16.9197 13.5873 17.3346L13.5774 17.4H13.2516L13.2153 17.2101C13.1376 16.8063 12.8628 16.476 12.4806 16.326C12.0978 16.176 11.6718 16.2318 11.3406 16.4742L11.1774 16.5939L10.947 16.3635L11.0553 16.2036C11.2857 15.8634 11.325 15.4356 11.1609 15.0591C10.9968 14.6826 10.656 14.4204 10.2501 14.358L10.05 14.3274V14.0016L10.2399 13.9653C10.6437 13.8876 10.974 13.6128 11.124 13.2306C11.274 12.8481 11.2185 12.4221 10.9758 12.0906L10.8561 11.9274L11.0865 11.697L11.3532 11.8776C11.6856 12.1032 12.1065 12.1455 12.4773 11.9919C12.8484 11.838 13.1154 11.5107 13.1913 11.1162L13.2516 10.8H13.5774L13.6083 11.0001C13.6707 11.4063 13.9329 11.7468 14.3094 11.9109C14.6859 12.075 15.114 12.0357 15.4539 11.8053L15.6138 11.697L15.8442 11.9274L15.7245 12.0906C15.4815 12.4218 15.4263 12.8478 15.5763 13.2306C15.7263 13.6128 16.0569 13.8876 16.4604 13.9653L16.6503 14.0016V14.3274H16.65Z" fill="#1C5F9E"/>
        <path d="M13.3501 12.6C12.523 12.6 11.8501 13.2729 11.8501 14.1C11.8501 14.9271 12.523 15.6 13.3501 15.6C14.1772 15.6 14.8501 14.9271 14.8501 14.1C14.8501 13.2729 14.1772 12.6 13.3501 12.6ZM13.3501 15C12.8539 15 12.4501 14.5962 12.4501 14.1C12.4501 13.6038 12.8539 13.2 13.3501 13.2C13.8463 13.2 14.2501 13.6038 14.2501 14.1C14.2501 14.5962 13.8463 15 13.3501 15Z" fill="#1C5F9E"/>
        <path d="M11.5501 9.6H14.2501V6.3H11.5501H10.9501H8.8501H8.2501H6.1501H5.5501H2.8501V9V9.6V11.7V12.3V15H5.5501H6.1501H8.8501V12.3V11.7V9.6H10.9501H11.5501ZM11.5501 6.9H13.6501V9H11.5501V6.9ZM6.1501 6.9H8.2501V9H6.1501V6.9ZM3.4501 6.9H5.5501V9H3.4501V6.9ZM3.4501 9.6H5.5501V11.7H3.4501V9.6ZM5.5501 14.4H3.4501V12.3H5.5501V14.4ZM8.2501 14.4H6.1501V12.3H8.2501V14.4ZM8.2501 11.7H6.1501V9.6H8.2501V11.7ZM8.8501 9V6.9H10.9501V9H8.8501Z" fill="#1C5F9E"/>
        <path d="M8.55 16.5H1.35V4.8H15.75V9.9C15.75 10.0659 15.8841 10.2 16.05 10.2C16.2159 10.2 16.35 10.0659 16.35 9.9V4.5V1.5C16.35 1.3341 16.2159 1.2 16.05 1.2H14.55V0.3C14.55 0.1341 14.4159 0 14.25 0H12.15C11.9841 0 11.85 0.1341 11.85 0.3V1.2H5.25V0.3C5.25 0.1341 5.1159 0 4.95 0H2.85C2.6841 0 2.55 0.1341 2.55 0.3V1.2H1.05C0.8841 1.2 0.75 1.3341 0.75 1.5V4.5V16.8C0.75 16.9659 0.8841 17.1 1.05 17.1H8.55C8.7159 17.1 8.85 16.9659 8.85 16.8C8.85 16.6341 8.7159 16.5 8.55 16.5ZM12.45 0.6H13.95V1.5V2.4H12.45V1.5V0.6ZM3.15 0.6H4.65V1.5V2.4H3.15V1.5V0.6ZM1.35 1.8H2.55V2.7C2.55 2.8659 2.6841 3 2.85 3H4.95C5.1159 3 5.25 2.8659 5.25 2.7V1.8H11.85V2.7C11.85 2.8659 11.9841 3 12.15 3H14.25C14.4159 3 14.55 2.8659 14.55 2.7V1.8H15.75V4.2H1.35V1.8Z" fill="#1C5F9E"/>
    </g>
    <defs>
        <clipPath id="clip0_24_35">
            <rect width="18" height="18" fill="white"/>
        </clipPath>
    </defs>
</svg>
