<svg width="74" height="74" viewBox="0 0 74 74" fill="none" xmlns="http://www.w3.org/2000/svg">
    <g clip-path="url(#clip0_49_3691)">
        <path d="M47.4191 51.995V43.8911H26.5806V51.995L36.9998 61.2565L47.4191 51.995Z" fill="white"/>
        <path d="M26.5806 43.8912V52.4413C39.706 57.1703 47.4192 45.3347 47.4192 45.3347V43.8909L26.5806 43.8912Z" fill="white"/>
        <path d="M70.5717 66.8822C70.5633 62.4215 67.7425 57.665 62.8883 56.3149L53.1818 54.3038L50.4253 50.1411C50.0292 49.6149 49.2746 49.5249 48.7657 49.9428L36.9844 60.1229L25.1647 49.9871C24.6543 49.571 23.9 49.664 23.5058 50.1917L20.7651 54.3646L11.0663 56.4124C6.21714 57.7808 3.41439 62.5479 3.42263 67.0085L3.42797 69.8801C3.43115 71.5597 4.98877 72.9184 6.90698 72.9146L33.535 72.8646L40.4814 72.8516L67.1094 72.8016C69.0277 72.798 70.5801 71.4335 70.5769 69.7539L70.5717 66.8822Z" fill="white"/>
        <path d="M11.873 64.7832L5.6895 60.1763C4.21253 62.1668 3.41804 64.6312 3.42238 67.0086L3.42773 69.8801C3.43091 71.5597 4.98852 72.9184 6.90674 72.9147L14.0792 72.9012V69.646C14.0794 67.7908 13.2772 66.023 11.873 64.7832Z" fill="white"/>
        <path d="M70.577 69.7539L70.5716 66.8823C70.5663 64.0333 69.412 61.0652 67.3152 58.9395L61.5143 64.7833C60.11 66.0231 59.3079 67.7908 59.3079 69.646V72.8163L67.1097 72.8017C69.0277 72.7981 70.5801 71.4336 70.577 69.7539Z" fill="white"/>
        <path d="M20.9199 28.1173C21.1022 23.4891 23.466 17.6706 24.0502 16.4014C24.1248 16.2397 24.1665 16.1527 24.1665 16.1527C25.9706 15.9171 27.6986 15.7742 29.3457 15.7061C29.8163 15.6867 30.2802 15.6734 30.7375 15.6659C43.312 15.4574 50.8012 19.5761 50.8012 19.5761L53.1544 25.1462C56.4842 14.645 55.3098 5.77103 54.2439 3.36111C46.1419 4.53399 34.1656 -2.34165 26.6188 3.41286L25.9774 3.41401C21.1821 3.42312 18.3616 7.5927 18.3711 12.6903C18.3804 17.6112 20.6777 27.3785 20.6777 27.3785L20.9199 28.9855C20.9196 28.8207 20.9136 28.575 20.9199 28.4066C20.9202 28.3986 20.9196 28.1254 20.9199 28.1173Z" fill="white"/>
        <path d="M53.032 31.7515C53.0437 31.66 53.0548 31.5685 53.0655 31.4775C53.3457 29.0738 53.6162 26.0315 52.5874 23.8042C51.947 22.4177 51.3957 20.9831 50.8011 19.5758C50.8011 19.5758 43.3119 15.4572 30.7374 15.6656C30.2801 15.6731 29.8162 15.6864 29.3456 15.7058C27.6985 15.7739 25.9705 15.9168 24.1665 16.1524C24.1665 16.1524 24.1247 16.2394 24.0501 16.4013C19.7127 25.8241 19.0246 37.5338 26.9773 45.3132C28.801 47.0971 31.0164 48.5112 33.4814 49.2128C33.7875 49.3001 34.0966 49.3761 34.4087 49.4405C34.4692 49.4531 34.5298 49.4654 34.5906 49.477C35.3704 49.6263 36.1669 49.7045 36.9763 49.703C46.3601 49.6861 51.9663 40.0618 53.032 31.7515Z" fill="white"/>
        <path d="M26.419 31.6062C26.1473 18.6542 28.3002 19.3056 28.3002 19.3056C33.6116 18.0798 42.4056 18.9451 51.2983 20.7753C51.1341 20.3745 50.9692 19.974 50.8011 19.576C50.8011 19.576 43.3119 15.4574 30.7374 15.6659C30.2801 15.6734 29.8162 15.6867 29.3456 15.706C27.6985 15.7741 25.9705 15.9171 24.1665 16.1526C24.1665 16.1526 24.1247 16.2396 24.0501 16.4015C19.7127 25.8244 19.0246 37.534 26.9773 45.3134C28.801 47.0974 31.0164 48.5114 33.4814 49.213C33.7875 49.3003 34.0966 49.3763 34.4087 49.4408C34.4692 49.4534 34.5298 49.4656 34.5906 49.4772C35.3684 49.6262 36.1629 49.7043 36.9702 49.7031C34.0521 48.6797 26.6205 41.2102 26.419 31.6062Z" fill="white"/>
        <path d="M54.2439 3.36087C46.1419 4.53374 34.1656 -2.3419 26.6188 3.41261C26.6188 3.41261 20.6115 10.4105 24.1663 16.1526C25.9704 15.917 27.6984 15.7741 29.3455 15.706C29.3554 15.7056 29.3651 15.7054 29.375 15.705C29.8353 15.6864 30.2897 15.6732 30.7373 15.6658C43.3118 15.4573 50.801 19.576 50.801 19.576L53.1543 25.1461C56.4841 14.6447 55.3096 5.77078 54.2439 3.36087Z" fill="white"/>
        <path d="M33.5177 63.603L36.9844 60.1232L25.1648 49.9874C24.6543 49.5713 23.9 49.6644 23.5059 50.1921L20.7651 54.365L30.0511 67.0827L33.5177 63.603Z" fill="white"/>
        <path d="M43.9438 67.0565L53.1818 54.3038L50.4253 50.1411C50.0292 49.6149 49.2746 49.5249 48.7657 49.9428L36.9844 60.1229L40.4641 63.5896L43.9438 67.0565Z" fill="white"/>
        <path d="M43.9438 67.0565L53.1818 54.3038L50.4253 50.1411C50.0292 49.6149 49.2746 49.5249 48.7657 49.9428L36.9844 60.1229L40.4641 63.5896L43.9438 67.0565Z" fill="white"/>
        <path d="M39.1537 66.7558L34.8123 66.6111L33.5349 72.8648L40.4814 72.8518L39.1537 66.7558Z" fill="white"/>
        <path d="M33.5197 64.7605C33.5222 66.0339 34.566 67.074 35.8396 67.0717L38.1552 67.0673C39.4286 67.0649 40.4687 66.0211 40.4662 64.7475L40.464 63.5898L36.9843 60.123L33.5176 63.6028L33.5197 64.7605Z" fill="white"/>
        <path d="M71.6572 66.8802C71.6525 64.4029 70.866 61.8952 69.4425 59.8185C67.8871 57.5494 65.7213 55.9763 63.1792 55.2693C63.1558 55.2628 63.1324 55.2571 63.1086 55.2522L53.8402 53.3317L52.7088 51.6232L51.3306 49.5418C51.3186 49.5236 51.3059 49.5057 51.2927 49.4882C50.8711 48.9285 50.2011 48.5942 49.4998 48.5942C48.9827 48.5942 48.4772 48.7753 48.077 49.1039C48.07 49.1096 48.063 49.1154 48.0562 49.1213L44.1292 52.5146L36.9819 58.6906L30.7996 53.3891L25.8717 49.163C25.8649 49.157 25.8578 49.1513 25.8509 49.1456C25.5017 48.861 25.0729 48.6883 24.6267 48.6496C24.563 48.6441 24.4988 48.6414 24.4345 48.6414C24.3464 48.6414 24.2587 48.6466 24.1723 48.6568C24.0656 48.6695 23.9611 48.6924 23.8581 48.7201C23.5427 48.8047 23.2473 48.9544 22.9962 49.1634C22.9722 49.1833 22.951 49.2065 22.9277 49.2276C22.8834 49.2676 22.8387 49.3076 22.7977 49.3513C22.7409 49.4119 22.6867 49.475 22.6366 49.5422C22.6306 49.5503 22.6251 49.5587 22.6193 49.5669C22.6125 49.5766 22.6054 49.586 22.5989 49.5958L20.1036 53.3951L10.8425 55.3505C10.8188 55.3556 10.7952 55.3613 10.7719 55.3678C8.23252 56.0844 6.07264 57.6657 4.52573 59.9407C3.11004 62.0226 2.33304 64.5334 2.33767 67.0106L2.34301 69.8821C2.34735 72.1547 4.39044 74.0004 6.8998 74.0001C6.90283 74.0001 6.9063 74.0001 6.90933 74.0001L33.5326 73.9501L33.5365 73.9502L33.5412 73.9501L40.4758 73.9371L40.4806 73.9372L40.4851 73.9371L67.1118 73.8871C68.3026 73.8849 69.4279 73.471 70.2805 72.7216C71.1739 71.9363 71.6647 70.8817 71.6625 69.7519L71.6572 66.8802ZM35.8351 68.1568C35.8373 68.1568 35.8394 68.1568 35.8416 68.1568L38.1571 68.1525C38.2466 68.1524 38.335 68.1476 38.4226 68.1406L39.1553 71.7687L34.8566 71.7768L35.5757 68.146C35.6618 68.1526 35.7481 68.1568 35.8351 68.1568ZM39.381 64.7495C39.3823 65.4279 38.8315 65.9808 38.1532 65.9821L35.8377 65.9864C35.5161 65.9829 35.2031 65.8589 34.9692 65.6258C34.7351 65.3927 34.6059 65.0847 34.6053 64.7585L34.604 64.0503L36.9874 61.6578L39.3799 64.0413L39.381 64.7495ZM43.81 65.3909L41.231 62.8216L41.1946 62.7853L38.579 60.1796L46.05 53.7239L49.4595 50.7778C49.4768 50.7655 49.5192 50.7609 49.5455 50.7814L49.5494 50.7837L50.7056 52.5298L51.8619 54.2759L47.836 59.8333L43.81 65.3909ZM24.4553 50.8166C24.4628 50.8186 24.4694 50.8213 24.4742 50.8248L35.3901 60.1855L30.1786 65.4165L22.0853 54.332L24.3848 50.831C24.4037 50.8131 24.4335 50.8111 24.4553 50.8166ZM6.905 71.8292H6.89936C5.58543 71.8292 4.51532 70.9547 4.5133 69.8779L4.50795 67.0064C4.50087 63.2334 6.84054 58.7516 11.3269 57.4664L20.3023 55.5715L29.1742 67.7224C29.3614 67.9786 29.6513 68.1404 29.9678 68.1645C29.9956 68.1667 30.0232 68.1677 30.0508 68.1677C30.3023 68.1677 30.5458 68.0802 30.7396 67.921C30.7674 67.8983 30.794 67.8741 30.8197 67.8483L32.6678 65.9932C32.8375 66.4262 33.0967 66.8241 33.4369 67.163C33.47 67.1961 33.5042 67.2281 33.5385 67.2596L32.643 71.7807L6.905 71.8292ZM68.8473 71.091C68.39 71.4929 67.7722 71.715 67.1076 71.7162L41.3693 71.7645L40.4572 67.2482C40.8352 66.8987 41.1333 66.4647 41.3225 65.9767L43.1779 67.8251C43.3822 68.0286 43.6578 68.1417 43.9439 68.1417C43.9728 68.1417 44.0018 68.1405 44.0309 68.1382C44.3474 68.1129 44.6368 67.9502 44.8229 67.693L53.6491 55.5089L62.6316 57.37C67.1229 58.6383 69.4794 63.1112 69.4864 66.8842L69.4918 69.7558C69.4927 70.2508 69.2639 70.725 68.8473 71.091Z" fill="#3C92CA"/>
        <path d="M19.5949 28.6987C19.5949 28.6988 19.5949 28.6991 19.5949 28.6994L19.595 28.8201C19.587 29.2271 19.5878 29.6314 19.5974 30.0334C19.5974 30.0405 19.5974 30.0478 19.5974 30.0548C19.5992 30.5707 19.6202 31.103 19.6599 31.6373C19.6599 31.6373 19.6599 31.6375 19.6599 31.6376C19.6776 31.8746 19.6994 32.1172 19.7251 32.3588C19.7251 32.3588 19.7251 32.3588 19.7251 32.359C19.7718 32.7999 19.8328 33.2475 19.9061 33.6895C19.9061 33.6899 19.9062 33.6902 19.9064 33.6907C19.934 33.8573 19.9635 34.0237 19.9947 34.1893C19.9947 34.1894 19.9947 34.1894 19.9947 34.1896C19.9951 34.1923 19.9957 34.1949 19.9961 34.1977C19.997 34.2023 19.998 34.2077 19.999 34.2126C19.9994 34.2155 19.9999 34.2173 20.0005 34.2202C20.002 34.2289 20.0038 34.238 20.0055 34.2465C20.0061 34.2499 20.0067 34.2526 20.0074 34.2559C20.0077 34.258 20.0083 34.2603 20.0086 34.2621C20.0086 34.2626 20.0087 34.263 20.0088 34.2636C20.4479 36.5567 21.2225 38.7319 22.2579 40.7078C22.2846 40.759 22.3114 40.8101 22.3385 40.8612C22.39 40.9577 22.4419 41.0542 22.4946 41.1498C22.5866 41.3167 22.6801 41.4831 22.7762 41.6477C22.7796 41.6536 22.7831 41.6593 22.7866 41.665C22.8954 41.851 23.0079 42.0346 23.122 42.2173C23.1351 42.2381 23.1481 42.2588 23.1611 42.2794C23.288 42.4811 23.417 42.6811 23.5506 42.8785C25.3811 45.5849 27.7018 47.7121 30.2662 49.0736C30.2724 49.0769 30.2788 49.0802 30.285 49.0835C30.6488 49.2761 31.0172 49.4534 31.3902 49.6145C31.4022 49.6197 31.4141 49.6251 31.4261 49.6303C31.5998 49.7049 31.7746 49.7753 31.9502 49.8429C31.9801 49.8545 32.0101 49.8659 32.0401 49.8773C32.2115 49.942 32.3836 50.0036 32.5565 50.0616C32.5845 50.071 32.6127 50.0798 32.6409 50.089C32.8212 50.1483 33.0021 50.2048 33.1839 50.2566C33.1842 50.2566 33.1843 50.2567 33.1846 50.2568H33.1847C33.3512 50.3042 33.5192 50.3488 33.6867 50.39C33.6967 50.3924 33.7065 50.3941 33.7163 50.3966C33.8739 50.4349 34.0314 50.471 34.1875 50.5031C34.1876 50.5031 34.1878 50.5031 34.1881 50.5033C34.1884 50.5033 34.1887 50.5034 34.1891 50.5034H34.1894C34.2319 50.5122 34.2745 50.5205 34.317 50.529C34.3401 50.5336 34.3634 50.5385 34.3865 50.5429C34.3865 50.5429 34.3867 50.5429 34.3868 50.543C34.3891 50.5434 34.4008 50.5458 34.4011 50.5458C34.402 50.5459 34.4027 50.546 34.4036 50.5462C34.416 50.5485 34.4283 50.551 34.4407 50.5531C34.5548 50.5745 34.6695 50.5909 34.784 50.6093C34.8713 50.6235 34.9583 50.6397 35.0456 50.6521C35.1791 50.6711 35.313 50.6851 35.4468 50.7001C35.525 50.7088 35.6029 50.7201 35.6811 50.7274C35.8352 50.742 35.9892 50.7513 36.1433 50.7605C36.2014 50.764 36.2594 50.7699 36.3175 50.7728C36.5296 50.7828 36.7415 50.788 36.9527 50.788H36.9528C36.953 50.788 36.9532 50.788 36.9535 50.788H36.9781H36.9783C37.0579 50.7878 37.1374 50.787 37.2167 50.7854C37.2208 50.7854 37.2248 50.7852 37.2287 50.7851C37.2575 50.7845 37.2864 50.7829 37.3152 50.7821C37.3592 50.7808 37.4035 50.7792 37.4475 50.7774C37.5486 50.7737 37.6495 50.7689 37.7503 50.763C37.7605 50.7624 37.7706 50.7617 37.7807 50.761C41.4792 50.5332 45.0622 48.78 47.9895 45.7671C48.0024 45.754 48.0149 45.7405 48.0278 45.7274C48.1083 45.6441 48.1882 45.5603 48.2677 45.4752C48.3081 45.432 48.3482 45.388 48.3883 45.3445C48.4238 45.3058 48.46 45.2678 48.4952 45.2286C48.5162 45.2053 48.5367 45.1815 48.5577 45.1579C48.5757 45.1377 48.5942 45.118 48.6123 45.0975C48.6376 45.0689 48.6623 45.0394 48.6876 45.0106C48.7418 44.9486 48.7959 44.8866 48.8493 44.8239C48.881 44.7869 48.9126 44.7495 48.9441 44.7122C49.0203 44.622 49.0955 44.5311 49.1702 44.4397C49.1732 44.4361 49.1761 44.4324 49.1791 44.4288C51.8194 41.1853 53.5483 37.0858 54.0777 32.7693C54.1051 32.5453 54.1293 32.3217 54.1496 32.1044C54.1496 32.1041 54.1497 32.1039 54.1497 32.1036C54.1577 32.0177 54.1653 31.9319 54.1724 31.8459C54.1724 31.8457 54.1724 31.8454 54.1724 31.8453C54.1863 31.6749 54.1978 31.5045 54.208 31.3344C54.2234 31.1397 54.237 30.9452 54.2481 30.7518C54.3047 29.7671 54.2996 28.8003 54.2891 28.0678C54.2875 27.9562 54.293 27.7095 54.2987 27.4485C54.3255 26.2511 54.322 25.614 54.2713 25.2083C57.6102 14.4651 56.3407 5.41905 55.2362 2.9217C55.0392 2.4764 54.57 2.21696 54.088 2.28648C53.5087 2.37031 52.8712 2.4128 52.1932 2.4128C49.687 2.4128 46.8867 1.85593 43.922 1.26653C40.7901 0.644176 37.5512 0 34.466 0C31.146 0 28.4574 0.762258 26.2614 2.32811L25.9757 2.32869C20.848 2.33837 17.2747 6.60016 17.2862 12.6924C17.2951 17.4378 19.3145 26.3044 19.5929 27.5046L19.5949 28.6987ZM30.7555 16.7509C31.0786 16.7455 31.3982 16.7435 31.7144 16.7439C31.8191 16.7439 31.9237 16.7461 32.0283 16.7468C32.2541 16.7484 32.4803 16.7499 32.7024 16.7542C32.7442 16.7549 32.7861 16.7567 32.8279 16.7575C35.0171 16.8061 37.0309 16.986 38.8499 17.2437C43.4839 17.9008 46.8584 19.0573 48.6935 19.8077C49.2663 20.042 49.6925 20.2377 49.956 20.3649L50.0686 20.6313L52.0692 25.3665L52.0732 27.5544L52.0779 30.0056C52.0777 30.4263 52.0602 30.8573 52.0328 31.29C52.0227 31.4097 52.0127 31.5295 52.0008 31.6484C51.5393 36.2665 49.759 40.5316 46.9879 43.658C44.3783 46.6024 41.0131 48.3742 37.6603 48.594C37.6506 48.5946 37.6411 48.5953 37.6314 48.5959C37.5455 48.6014 37.46 48.605 37.3743 48.6083C37.335 48.6098 37.2956 48.6114 37.2562 48.6124C37.1621 48.6151 37.0682 48.6171 36.9744 48.6173H36.9742H36.9535C36.7761 48.6173 36.5981 48.6129 36.4198 48.6044C36.3657 48.6018 36.3114 48.5963 36.2572 48.593C36.133 48.5853 36.0089 48.578 35.8846 48.5661C35.8184 48.5599 35.7526 48.5504 35.6864 48.543C35.574 48.5304 35.4615 48.5187 35.3492 48.5028C35.2768 48.4925 35.2049 48.479 35.1326 48.4673C35.0196 48.4492 34.9065 48.4321 34.794 48.4106C34.739 48.4 34.6841 48.3889 34.6283 48.3774C34.3468 48.3193 34.0609 48.2489 33.7786 48.1685C33.581 48.1124 33.3846 48.0506 33.1888 47.9839C33.161 47.9745 33.1339 47.9636 33.106 47.954C32.9427 47.8969 32.7798 47.8374 32.6179 47.7732C32.5747 47.7562 32.5319 47.7375 32.4888 47.72C32.3394 47.6589 32.1901 47.5959 32.0419 47.5288C32.0036 47.5116 31.9656 47.4935 31.9275 47.4759C31.7689 47.4023 31.6109 47.3259 31.4541 47.2455C31.4306 47.2335 31.4069 47.2214 31.3832 47.2091C29.0925 46.018 27.0043 44.1104 25.3484 41.6621C23.0956 38.3313 21.8755 34.3379 21.7679 30.0063L21.7658 28.834C21.7734 28.474 21.7877 28.1121 21.8104 27.7481C21.8237 27.5345 21.8428 27.3205 21.864 27.1065C21.8717 27.0402 21.8794 26.974 21.8879 26.9075C21.8953 26.85 21.9028 26.7922 21.9107 26.7345C21.9223 26.6501 21.9346 26.5654 21.9473 26.4806C21.9557 26.4248 21.9642 26.369 21.9732 26.3131C21.9872 26.2249 22.0021 26.1365 22.0174 26.048C22.0265 25.9951 22.0356 25.9421 22.0451 25.8889C22.0619 25.7958 22.0795 25.7026 22.0976 25.6095C22.107 25.5608 22.1162 25.5119 22.1261 25.4631C22.146 25.3635 22.1668 25.2636 22.1882 25.1639C22.1973 25.1214 22.2061 25.0786 22.2154 25.036C22.2392 24.9264 22.2641 24.8169 22.2895 24.7073C22.2971 24.6747 22.3044 24.6417 22.3121 24.609C22.3422 24.4808 22.3735 24.3528 22.4053 24.2252C22.4088 24.2114 22.412 24.1976 22.4154 24.1838C22.5978 23.4574 22.8064 22.7401 23.0252 22.0542C23.0291 22.042 23.033 22.03 23.0369 22.0179C23.0762 21.8947 23.1161 21.7725 23.156 21.6514C23.1621 21.6329 23.1683 21.6146 23.1744 21.5963C23.2122 21.4817 23.2505 21.3682 23.2887 21.2559C23.2961 21.2344 23.3033 21.2131 23.3107 21.1916C23.3477 21.0835 23.3848 20.9764 23.4219 20.8706C23.4303 20.8468 23.4386 20.8233 23.4469 20.7995C23.4834 20.6962 23.5199 20.5937 23.5564 20.4928C23.5646 20.4697 23.573 20.4468 23.5812 20.4237C23.6176 20.323 23.6542 20.2235 23.6903 20.1254C23.6984 20.1036 23.7065 20.0817 23.7145 20.0599C23.7508 19.9618 23.7872 19.8652 23.8232 19.7701C23.8308 19.75 23.8383 19.7298 23.846 19.7097C23.8827 19.6132 23.9191 19.5184 23.9551 19.4253C23.9616 19.4084 23.9683 19.3913 23.9748 19.3746C24.0121 19.2783 24.0491 19.1842 24.0856 19.0919C24.0905 19.0796 24.0955 19.0669 24.1004 19.0547C24.1385 18.9583 24.1761 18.8645 24.2131 18.7729C24.2163 18.7651 24.2195 18.757 24.2226 18.7492C24.2624 18.6505 24.3017 18.5543 24.3399 18.4616V18.4614C24.4958 18.0817 24.6375 17.7509 24.7558 17.4802C24.7563 17.4792 24.7567 17.4783 24.7571 17.4773C24.7855 17.4123 24.8125 17.3511 24.8382 17.2933C24.8428 17.2828 24.847 17.2735 24.8516 17.2632C24.8684 17.2254 24.8845 17.1895 24.8998 17.155C25.1024 17.1307 25.3053 17.1095 25.508 17.0871C25.6713 17.0691 25.8349 17.0495 25.9982 17.033C26.2217 17.0105 26.445 16.9915 26.6681 16.9714C26.8235 16.9576 26.9793 16.9417 27.1344 16.9291C27.3775 16.9093 27.6197 16.8935 27.8621 16.8769C27.9966 16.8677 28.1318 16.8564 28.2662 16.8482C28.6421 16.825 29.017 16.8057 29.3901 16.7902C29.8442 16.7718 30.3034 16.7584 30.7555 16.7509ZM25.9796 4.4994L26.621 4.49825C26.858 4.49781 27.0884 4.41977 27.2772 4.27596C29.1348 2.85941 31.4865 2.17071 34.466 2.17071C37.3374 2.17071 40.4698 2.7935 43.4991 3.39605C46.5717 4.00698 49.4737 4.58395 52.1936 4.58395C52.6457 4.58395 53.0844 4.56733 53.5058 4.53409C54.2367 7.09966 54.9556 13.7204 52.949 21.871L51.8008 19.1536C51.7988 19.1487 51.7956 19.1445 51.7934 19.1396C51.7739 19.0949 51.7509 19.0517 51.7252 19.0098C51.7219 19.0043 51.7197 18.9981 51.7163 18.9926C51.7115 18.985 51.7051 18.9787 51.7001 18.9713C51.6894 18.9554 51.6801 18.9388 51.6687 18.9233C51.6686 18.9232 51.6684 18.923 51.6683 18.9229C51.6683 18.9228 51.6681 18.9228 51.668 18.9226C51.6518 18.9011 51.6337 18.8811 51.6161 18.8609C51.6128 18.8571 51.6103 18.8527 51.607 18.849C51.6055 18.8475 51.6038 18.8462 51.6024 18.8446C51.5657 18.8044 51.5259 18.7674 51.484 18.7334C51.4762 18.7271 51.4681 18.7213 51.46 18.7152C51.4202 18.6849 51.3786 18.6568 51.3353 18.6322C51.3314 18.6301 51.328 18.6269 51.324 18.6249C51.2987 18.6109 51.2233 18.5701 51.101 18.5078C49.8141 17.8525 43.2261 14.7759 32.7053 14.5829C32.6871 14.5826 32.6688 14.5822 32.6506 14.5818C32.3447 14.5764 32.0357 14.5737 31.7232 14.5734C31.702 14.5734 31.6808 14.5728 31.6594 14.5728C31.6277 14.5728 31.595 14.5735 31.5632 14.5735C31.3177 14.574 31.0705 14.5757 30.8211 14.5794C30.8019 14.5797 30.7831 14.5796 30.7638 14.5799C30.7612 14.5799 30.7586 14.5799 30.7559 14.5799C30.7436 14.58 30.7316 14.5803 30.7195 14.5805C30.2496 14.5883 29.7724 14.602 29.301 14.6215C27.562 14.6935 25.7873 14.8464 24.0261 15.0765C23.708 15.118 23.427 15.2978 23.2552 15.5634C23.2306 15.6013 23.2083 15.641 23.1884 15.6824C23.1884 15.6824 23.1856 15.6881 23.1801 15.6996C23.1638 15.7337 23.1239 15.8182 23.0642 15.9476C23.0472 15.9847 23.029 16.0246 23.0102 16.0658C22.2549 17.7133 21.3609 19.8134 20.6787 22.1139C20.0852 19.0199 19.4614 15.1813 19.4567 12.6881C19.4491 8.6184 21.463 4.50779 25.9796 4.4994Z" fill="#63676B"/>
    </g>
    <defs>
        <clipPath id="clip0_49_3691">
            <rect width="74" height="74" fill="white"/>
        </clipPath>
    </defs>
</svg>
