<svg width="72" height="72" viewBox="0 0 72 72" fill="none" xmlns="http://www.w3.org/2000/svg">
    <path d="M1.14893 7.27661L32.1702 37.1489L63.1915 7.27661H1.14893Z" fill="white"/>
    <path d="M55.268 64.72C55.3559 64.7215 55.4438 64.7234 55.532 64.7234C58.3224 64.7234 60.9384 63.9771 63.1917 62.6735L63.1915 52.6212L54 51.0894L55.268 64.72Z" fill="#6DABE9"/>
    <path d="M47.8723 52.6214L47.8721 62.6737C50.1253 63.9772 52.7416 64.7236 55.5319 64.7236V51.0896L47.8723 52.6214Z" fill="#3C92CA"/>
    <path d="M59.3617 45.7276L63.1915 52.6213H58.5958L54 44.1958L59.3617 45.7276Z" fill="white"/>
    <path d="M57.0637 44.1958L58.5957 52.6213H47.8723L51.7021 45.7276L57.0637 44.1958Z" fill="white"/>
    <path d="M37.1499 55.9148H3.99839L27 33.7651L31.3733 37.9764C31.5958 38.1907 31.8829 38.2978 32.1702 38.2978C32.4575 38.2978 32.7447 38.1907 32.9671 37.9764L37.3404 33.7651L40.2563 36.5729C40.4792 36.7875 40.7662 36.8942 41.0531 36.8942C41.3544 36.8942 41.6554 36.7763 41.8808 36.5422C42.3209 36.0852 42.3073 35.3579 41.8501 34.9177L38.9969 32.17L62.0425 9.97786V31.0221C62.0425 31.6566 62.5569 32.171 63.1914 32.171C63.8259 32.171 64.3403 31.6566 64.3403 31.0221V7.27659C64.3403 6.64209 63.8259 6.12769 63.1914 6.12769H1.14905C0.844312 6.12769 0.552094 6.24876 0.336656 6.4642C0.000140648 6.80072 0.000140625 7.01995 0.000140625 7.83572L0 57.0637C0 57.6982 0.514406 58.2127 1.14891 58.2127H37.1499C37.7844 58.2127 38.2988 57.6982 38.2988 57.0637C38.2988 56.4292 37.7844 55.9148 37.1499 55.9148ZM2.29781 54.3623C2.29781 45.6901 2.29781 18.6446 2.29795 9.978L25.3436 32.17L2.29781 54.3623ZM32.1702 35.5539L3.99839 8.4255H60.3419L32.1702 35.5539Z" fill="#63676B"/>
    <path d="M55.532 32.9363C46.4514 32.9363 39.064 40.3237 39.064 49.4043C39.064 58.4849 46.4514 65.8723 55.532 65.8723C64.6126 65.8723 72 58.4849 72 49.4043C72 40.3237 64.6126 32.9363 55.532 32.9363ZM52.3782 46.8767H58.6857L61.2388 51.4725H49.825L52.3782 46.8767ZM53.6548 44.5788L55.532 41.1998L57.4092 44.5788H53.6548ZM56.6809 53.7703H62.0427L62.0428 61.9874C60.4138 62.8337 58.6009 63.3729 56.6809 63.5276V53.7703ZM49.0213 53.7703H54.3831V63.5278C52.4631 63.3732 50.6501 62.8339 49.0211 61.9874L49.0213 53.7703ZM64.3406 60.4957L64.3405 52.6214C64.3405 52.4261 64.2907 52.2341 64.1959 52.0635L60.3733 45.1829C60.372 45.1806 60.3709 45.1784 60.3696 45.1761L56.5363 38.2761C56.3337 37.9113 55.9491 37.685 55.532 37.685C55.1149 37.685 54.7303 37.9113 54.5277 38.2761L50.6944 45.1761C50.6931 45.1784 50.692 45.1806 50.6907 45.1829L46.8681 52.0635C46.7733 52.2342 46.7235 52.4262 46.7235 52.6214L46.7232 60.4955C43.4586 57.8974 41.3619 53.8914 41.3619 49.4043C41.3619 41.5908 47.7186 35.2341 55.5321 35.2341C63.3457 35.2341 69.7022 41.5908 69.7022 49.4043C69.7022 53.8915 67.6052 57.8974 64.3406 60.4957Z" fill="#63676B"/>
</svg>
