<svg width="75" height="75" viewBox="0 0 75 75" fill="none" xmlns="http://www.w3.org/2000/svg">
    <g clip-path="url(#clip0_49_3507)">
        <path d="M42.2874 18.9495C42.9483 18.9495 43.4841 18.4136 43.4841 17.7527C43.4841 17.0917 42.9483 16.5559 42.2874 16.5559C41.6264 16.5559 41.0906 17.0917 41.0906 17.7527C41.0906 18.4136 41.6264 18.9495 42.2874 18.9495Z" fill="#3C92CA"/>
        <path d="M47.8723 18.9495C48.5333 18.9495 49.0691 18.4136 49.0691 17.7527C49.0691 17.0917 48.5333 16.5559 47.8723 16.5559C47.2114 16.5559 46.6755 17.0917 46.6755 17.7527C46.6755 18.4136 47.2114 18.9495 47.8723 18.9495Z" fill="#3C92CA"/>
        <path d="M36.7021 18.9495C37.3631 18.9495 37.8989 18.4136 37.8989 17.7527C37.8989 17.0917 37.3631 16.5559 36.7021 16.5559C36.0412 16.5559 35.5054 17.0917 35.5054 17.7527C35.5054 18.4136 36.0412 18.9495 36.7021 18.9495Z" fill="#3C92CA"/>
        <path d="M69.016 0H15.5585C12.2588 0 9.57451 2.68433 9.57451 5.98403V9.97339L0.478711 16.7952C0.177246 17.0212 0 17.3761 0 17.7526C0 18.1292 0.177246 18.4841 0.478711 18.71L9.57451 25.5318V29.5211C9.57451 32.8209 12.2588 35.5052 15.5585 35.5052H59.4415C60.1024 35.5052 60.6382 34.9695 60.6382 34.3084C60.6382 33.6473 60.1024 33.1116 59.4415 33.1116H15.5585C13.5787 33.1116 11.9681 31.5009 11.9681 29.5211V24.9334C11.9681 24.5568 11.7908 24.2019 11.4894 23.976L3.19146 17.7526L11.4894 11.5292C11.7908 11.3032 11.9681 10.9484 11.9681 10.5718V5.98403C11.9681 4.0043 13.5787 2.39355 15.5585 2.39355H69.016C70.9958 2.39355 72.6064 4.0043 72.6064 5.98403V29.5213C72.6064 31.501 70.9958 33.1118 69.016 33.1118H64.2287C63.5678 33.1118 63.0319 33.6475 63.0319 34.3085C63.0319 34.9696 63.5678 35.5053 64.2287 35.5053H69.016C72.3157 35.5053 75 32.821 75 29.5213V5.98403C75 2.68433 72.3157 0 69.016 0Z" fill="#3C92CA"/>
        <path d="M32.7126 58.4441C33.3736 58.4441 33.9094 57.9083 33.9094 57.2473C33.9094 56.5864 33.3736 56.0505 32.7126 56.0505C32.0517 56.0505 31.5159 56.5864 31.5159 57.2473C31.5159 57.9083 32.0517 58.4441 32.7126 58.4441Z" fill="#63676B"/>
        <path d="M27.1277 58.4441C27.7886 58.4441 28.3245 57.9083 28.3245 57.2473C28.3245 56.5864 27.7886 56.0505 27.1277 56.0505C26.4667 56.0505 25.9309 56.5864 25.9309 57.2473C25.9309 57.9083 26.4667 58.4441 27.1277 58.4441Z" fill="#63676B"/>
        <path d="M38.2979 58.4441C38.9588 58.4441 39.4946 57.9083 39.4946 57.2473C39.4946 56.5864 38.9588 56.0505 38.2979 56.0505C37.6369 56.0505 37.1011 56.5864 37.1011 57.2473C37.1011 57.9083 37.6369 58.4441 38.2979 58.4441Z" fill="#63676B"/>
        <path d="M74.5213 56.2898L65.4255 49.468V45.4787C65.4255 42.179 62.7412 39.4946 59.4415 39.4946H15.5585C14.8976 39.4946 14.3618 40.0303 14.3618 40.6914C14.3618 41.3525 14.8976 41.8882 15.5585 41.8882H59.4415C61.4213 41.8882 63.0319 43.4989 63.0319 45.4787V50.0664C63.0319 50.443 63.2092 50.7979 63.5106 51.0238L71.8085 57.2472L63.5106 63.4706C63.2092 63.6966 63.0319 64.0514 63.0319 64.428V69.0158C63.0319 70.9955 61.4213 72.6062 59.4415 72.6062H5.98403C4.00415 72.6062 2.39355 70.9955 2.39355 69.0158V45.4787C2.39355 43.4989 4.00415 41.8882 5.98403 41.8882H10.7713C11.4322 41.8882 11.9681 41.3525 11.9681 40.6914C11.9681 40.0303 11.4322 39.4946 10.7713 39.4946H5.98403C2.68433 39.4946 0 42.179 0 45.4787V69.0159C0 72.3156 2.68433 75 5.98403 75H59.4415C62.7412 75 65.4255 72.3156 65.4255 69.0159V65.0266L74.5213 58.2048C74.8228 57.9788 75 57.624 75 57.2474C75 56.8708 74.8228 56.5158 74.5213 56.2898Z" fill="#63676B"/>
    </g>
    <defs>
        <clipPath id="clip0_49_3507">
            <rect width="75" height="75" fill="white"/>
        </clipPath>
    </defs>
</svg>
