<svg width="80" height="80" viewBox="0 0 80 80" fill="none" xmlns="http://www.w3.org/2000/svg">
    <g clip-path="url(#clip0_49_3581)">
        <path d="M27.1896 49.1443C39.5427 49.1443 49.5569 39.1301 49.5569 26.777C49.5569 14.4239 39.5427 4.40967 27.1896 4.40967C14.8365 4.40967 4.82227 14.4239 4.82227 26.777C4.82227 39.1301 14.8365 49.1443 27.1896 49.1443Z" fill="white"/>
        <path d="M79.9999 61.6087C79.9999 61.5597 79.9999 61.5108 79.9836 61.4618C79.9836 61.4129 79.9673 61.3639 79.951 61.315C79.9347 61.2661 79.9347 61.2171 79.9184 61.1845C79.9021 61.1355 79.8857 61.1029 79.8531 61.054C79.8368 61.005 79.8205 60.9724 79.7879 60.9234C79.7715 60.8745 79.7389 60.8419 79.7063 60.8092C79.6737 60.7766 79.6573 60.7277 79.6247 60.695C79.5921 60.6624 79.5595 60.6298 79.5105 60.5971C79.4779 60.5645 79.4453 60.5319 79.4126 60.4993C79.38 60.4666 79.331 60.4503 79.2821 60.4177C79.2495 60.4014 79.2168 60.3687 79.1679 60.3524L61.1729 51.4773C61.1239 51.4447 61.075 51.4283 61.0097 51.412C60.6998 51.2978 53.2766 48.7038 47.2076 51.4283L33.8133 56.2738C33.7807 56.2901 33.7317 56.3064 33.6991 56.3227C31.774 57.2037 30.7625 59.1778 31.1703 61.2497C31.5782 63.3054 33.2423 64.7574 35.3305 64.8553C35.3469 64.8553 35.3469 64.8553 35.3632 64.8553C35.4937 64.8553 36.081 64.8226 42.1827 64.4311C44.842 64.2679 47.5828 64.0885 47.8275 64.0722C48.5943 64.0395 49.2306 63.4196 49.2469 62.6365C49.2632 61.8207 48.627 61.1355 47.7949 61.1192C47.7133 61.1192 47.7133 61.1192 42.0032 61.4781C39.1482 61.6576 35.9505 61.8697 35.4121 61.9023C34.3843 61.8207 34.1396 60.9561 34.0743 60.695C33.9601 60.1403 34.1233 59.4062 34.89 59.031L48.268 54.1855C48.3007 54.1692 48.3333 54.1529 48.3822 54.1366C53.0808 51.9994 59.2151 53.9245 59.9493 54.1529L67.9598 58.101L63.5548 68.4934C61.385 67.1556 58.742 66.7967 56.2948 67.5309L38.3161 72.931C36.1789 73.5836 33.8133 73.3389 31.8392 72.2621L3.6802 57.0079C2.66869 56.4532 2.99499 55.4907 3.07656 55.2949C3.17445 55.0339 3.59863 54.2181 4.62645 54.4955L26.5043 61.7881C27.2711 62.0492 28.1195 61.625 28.3805 60.8582C28.6416 60.0751 28.2174 59.243 27.4506 58.982L5.52375 51.6567C5.49112 51.6404 5.47481 51.6404 5.44218 51.6404C3.27234 51.0531 1.16775 52.0972 0.335705 54.1855C-0.512655 56.2901 0.286761 58.5089 2.27714 59.602L30.4525 74.9051C33.1118 76.3571 36.2931 76.6834 39.1808 75.8024L57.1595 70.4022C58.8073 69.9128 60.5856 70.1412 62.0376 71.0711L71.2064 76.8465C71.2553 76.8791 71.2879 76.8954 71.3369 76.9118C71.3532 76.9118 71.3532 76.9281 71.3695 76.9281H71.3858C71.4022 76.9444 71.4185 76.9444 71.4511 76.9444C71.4837 76.9607 71.5327 76.977 71.5653 76.9933C71.5816 76.9933 71.6142 77.0096 71.6306 77.0096C71.6632 77.026 71.7121 77.026 71.7448 77.0423C71.7611 77.0423 71.7937 77.0423 71.81 77.0586C71.8753 77.0586 71.9242 77.0749 71.9895 77.0749C72.0547 77.0749 72.12 77.0749 72.1852 77.0586C72.2016 77.0586 72.2342 77.0586 72.2505 77.0423C72.2995 77.0423 72.3321 77.026 72.381 77.0096C72.3973 77.0096 72.43 76.9933 72.4463 76.9933C72.4789 76.977 72.5279 76.9607 72.5605 76.9444C72.5768 76.9281 72.6094 76.9281 72.6257 76.9118C72.6584 76.8954 72.691 76.8791 72.7399 76.8465C72.7563 76.8302 72.7889 76.8139 72.8052 76.8139C72.8378 76.7976 72.8705 76.7649 72.9031 76.7486C72.9194 76.7323 72.952 76.716 72.9683 76.6997C73.001 76.667 73.0173 76.6507 73.0499 76.6181C73.0662 76.6018 73.0826 76.5855 73.1152 76.5528C73.1478 76.5202 73.1641 76.4876 73.1804 76.455C73.1968 76.4386 73.2131 76.406 73.2294 76.3897C73.2294 76.3897 73.2294 76.3734 73.2457 76.3734C73.2457 76.3571 73.262 76.3407 73.262 76.3407C73.2783 76.3081 73.311 76.2592 73.3273 76.2102L79.8531 62.3102C79.8694 62.2612 79.8857 62.2286 79.9021 62.1797C79.9184 62.1307 79.9347 62.0818 79.951 62.0492C79.9673 62.0002 79.9673 61.9513 79.9673 61.9023C79.9673 61.8534 79.9836 61.8044 79.9836 61.7555C79.9999 61.7065 79.9999 61.6576 79.9999 61.6087ZM76.5739 62.3591L71.3695 73.4368L66.0999 70.1086L70.619 59.4388L76.5739 62.3591Z" fill="#6D7074"/>
        <path d="M25.1012 28.2616H29.2451C30.9419 28.2616 32.3123 29.632 32.3123 31.3288C32.3123 33.0255 30.9419 34.3959 29.2451 34.3959H21.7894C20.9736 34.3959 20.3047 35.0648 20.3047 35.8805C20.3047 36.6963 20.9736 37.3652 21.7894 37.3652H25.6885V40.2855C25.6885 41.1012 26.3575 41.7701 27.1732 41.7701C27.9889 41.7701 28.6578 41.1012 28.6578 40.2855V37.3652H29.2615C32.5896 37.3652 35.2979 34.6569 35.2979 31.3288C35.2979 28.0006 32.5896 25.2924 29.2615 25.2924H25.1175C23.4208 25.2924 22.0504 23.9219 22.0504 22.2252C22.0504 20.5285 23.4208 19.1581 25.1175 19.1581H32.4428C33.2585 19.1581 33.9274 18.4892 33.9274 17.6734C33.9274 16.8577 33.2585 16.1888 32.4428 16.1888H28.6741V13.3338C28.6741 12.518 28.0052 11.8491 27.1895 11.8491C26.3738 11.8491 25.7049 12.518 25.7049 13.3338V16.2051H25.1012C21.773 16.2051 19.0648 18.9133 19.0648 22.2415C19.0811 25.5534 21.7894 28.2616 25.1012 28.2616Z" fill="#3C92CA"/>
        <path d="M27.1896 50.6127C40.3392 50.6127 51.0252 39.9103 51.0252 26.777C51.0252 13.6437 40.3229 2.92505 27.1896 2.92505C14.0563 2.92505 3.33765 13.6274 3.33765 26.777C3.33765 39.9266 14.04 50.6127 27.1896 50.6127ZM27.1896 5.89431C38.7077 5.89431 48.0723 15.2589 48.0723 26.777C48.0723 38.2951 38.7077 47.6597 27.1896 47.6597C15.6715 47.6597 6.30691 38.2951 6.30691 26.777C6.30691 15.2589 15.6715 5.89431 27.1896 5.89431Z" fill="#3C92CA"/>
    </g>
    <defs>
        <clipPath id="clip0_49_3581">
            <rect width="80" height="80" fill="white"/>
        </clipPath>
    </defs>
</svg>
