<svg width="72" height="72" viewBox="0 0 72 72" fill="none" xmlns="http://www.w3.org/2000/svg">
    <g clip-path="url(#clip0_49_3613)">
        <path d="M70.3428 52.8796L68.5188 52.5297C67.6637 52.3655 66.9904 51.806 66.6721 50.9937C66.3525 50.1828 66.4662 49.315 66.9816 48.6127L68.1273 47.0514C68.4961 46.5487 68.443 45.8514 68.0009 45.4106L65.5264 42.9373C65.0982 42.5091 64.4249 42.446 63.9247 42.7845L62.3875 43.8253C61.6675 44.3154 60.7934 44.395 59.9938 44.0464C59.1955 43.699 58.6611 43.0043 58.5285 42.1415L58.2342 40.2279C58.1407 39.6127 57.6102 39.158 56.9875 39.158H53.4885C52.8835 39.158 52.3618 39.5887 52.2481 40.1836L51.7959 42.5394C51.6355 43.3756 51.091 44.0426 50.3041 44.3685C49.5146 44.6982 48.6607 44.6072 47.9546 44.1297L45.9689 42.7858C45.4675 42.4472 44.7955 42.5104 44.3673 42.9386L41.8927 45.4119C41.4506 45.8527 41.3976 46.5487 41.7664 47.0527L42.9121 48.614C43.4275 49.3163 43.5411 50.1841 43.2216 50.995C42.9033 51.8072 42.23 52.3668 41.3748 52.531L39.5508 52.8809C38.9559 52.9959 38.5251 53.5163 38.5251 54.1213V57.6203C38.5251 58.243 38.9799 58.7735 39.5963 58.8683L41.51 59.1626C42.3727 59.2952 43.0662 59.8295 43.4148 60.6279C43.7635 61.4274 43.6826 62.299 43.1938 63.0215L42.1529 64.5588C41.8131 65.059 41.8776 65.7323 42.3058 66.1605L44.779 68.635C45.2186 69.0759 45.9146 69.1276 46.4199 68.7613L47.9811 67.6156C48.6822 67.1015 49.5525 66.9866 50.3622 67.3062C51.1744 67.6245 51.734 68.2977 51.8982 69.1529L52.2481 70.9769C52.363 71.5693 52.8835 72.0001 53.4898 72.0001H56.9887C57.6115 72.0001 58.142 71.5453 58.2367 70.9289L58.4439 69.5836C58.5765 68.7146 59.1411 67.9971 59.9508 67.6611C60.7643 67.3251 61.67 67.435 62.3774 67.9542L63.475 68.7601C63.9803 69.1302 64.6763 69.0759 65.1159 68.6337L67.5891 66.1592C68.0174 65.731 68.0818 65.059 67.742 64.5575L66.7011 63.0203C66.2123 62.299 66.1315 61.4262 66.4801 60.6266C66.8275 59.8283 67.5222 59.294 68.3849 59.1613L70.2986 58.867C70.9138 58.7723 71.3698 58.2418 71.3698 57.619V54.1201C71.3685 53.515 70.9378 52.9946 70.3428 52.8796ZM68.8422 56.5365L67.9997 56.6666C66.2894 56.9293 64.8557 58.0333 64.1647 59.6186C63.4725 61.2051 63.6392 63.0064 64.6094 64.4375L65.0654 65.1108L64.0953 66.0809L63.8717 65.9167C62.4443 64.8721 60.619 64.651 58.9845 65.3268C57.35 66.0039 56.2157 67.4514 55.9466 69.1984L55.9049 69.4738H54.5331L54.3803 68.6742C54.0531 66.974 52.8961 65.5832 51.2868 64.9516C49.6763 64.3213 47.8826 64.555 46.4868 65.5756L45.7997 66.0796L44.8296 65.1095L45.2856 64.4363C46.2557 63.0039 46.4211 61.2026 45.7302 59.6173C45.0393 58.0321 43.6043 56.9281 41.8953 56.6653L41.0527 56.5365V55.1647L41.8523 55.0119C43.5525 54.6847 44.9433 53.5276 45.5748 51.9184C46.2064 50.3079 45.9727 48.5142 44.9508 47.1184L44.4468 46.4312L45.4169 45.4611L46.5399 46.2215C47.9382 47.1714 49.7104 47.3495 51.2729 46.7028C52.8355 46.0548 53.9597 44.6767 54.2793 43.0156L54.5331 41.6843H55.9049L56.035 42.5268C56.2978 44.2371 57.4018 45.6708 58.987 46.3617C60.5736 47.0527 62.3748 46.8872 63.806 45.9171L64.4793 45.4611L65.4494 46.4312L64.9454 47.1184C63.9222 48.5129 63.6898 50.3066 64.3214 51.9184C64.9529 53.5276 66.3449 54.6847 68.0439 55.0119L68.8435 55.1647V56.5365H68.8422Z" fill="#3C92CA"/>
        <path d="M54.9474 49.2632C51.4649 49.2632 48.6316 52.0964 48.6316 55.579C48.6316 59.0615 51.4649 61.8948 54.9474 61.8948C58.4299 61.8948 61.2632 59.0615 61.2632 55.579C61.2632 52.0964 58.4299 49.2632 54.9474 49.2632ZM54.9474 59.3684C52.8581 59.3684 51.1579 57.6682 51.1579 55.579C51.1579 53.4897 52.8581 51.7895 54.9474 51.7895C57.0366 51.7895 58.7369 53.4897 58.7369 55.579C58.7369 57.6682 57.0366 59.3684 54.9474 59.3684Z" fill="#3C92CA"/>
        <path d="M34.7368 15.158C34.0383 15.158 33.4736 15.7226 33.4736 16.4211C33.4736 17.1196 34.0383 17.6843 34.7368 17.6843H57.4736C58.1722 17.6843 58.7368 17.1196 58.7368 16.4211C58.7368 15.7226 58.1722 15.158 57.4736 15.158H34.7368Z" fill="#63676B"/>
        <path d="M58.7368 34.1052C58.7368 33.4067 58.1722 32.842 57.4736 32.842H34.7368C34.0383 32.842 33.4736 33.4067 33.4736 34.1052C33.4736 34.8037 34.0383 35.3684 34.7368 35.3684H57.4736C58.1722 35.3684 58.7368 34.8037 58.7368 34.1052Z" fill="#63676B"/>
        <path d="M26.626 9.14648C26.098 8.693 25.2997 8.75237 24.8462 9.2829L16.954 18.4888L12.1262 14.8686C11.5692 14.4517 10.7772 14.5616 10.3591 15.1212C9.9397 15.6783 10.0534 16.4703 10.6117 16.8884L16.3856 21.2197C16.6117 21.3903 16.8782 21.4724 17.1422 21.4724C17.4997 21.4724 17.8534 21.3221 18.1022 21.0303L26.7637 10.925C27.2184 10.397 27.1565 9.60121 26.626 9.14648Z" fill="#3C92CA"/>
        <path d="M26.626 26.8308C26.098 26.3773 25.2997 26.4367 24.8462 26.9672L16.954 36.1731L12.1262 32.5529C11.5692 32.1361 10.7772 32.246 10.3591 32.8055C9.9397 33.3626 10.0534 34.1546 10.6117 34.5727L16.3856 38.9041C16.6117 39.0746 16.8782 39.1567 17.1422 39.1567C17.4997 39.1567 17.8534 39.0064 18.1022 38.7146L26.7637 28.6093C27.2184 28.0813 27.1565 27.2855 26.626 26.8308Z" fill="#3C92CA"/>
        <path d="M24.8462 45.9157L16.954 55.1203L12.1262 51.5001C11.5692 51.082 10.7772 51.1932 10.3591 51.7528C9.9397 52.3098 10.0534 53.1018 10.6117 53.5199L16.3856 57.8513C16.6117 58.0218 16.8782 58.1039 17.1422 58.1039C17.4997 58.1039 17.8534 57.9536 18.1022 57.6618L26.7637 47.5578C27.2184 47.0285 27.1578 46.2315 26.6273 45.778C26.098 45.3245 25.2997 45.3852 24.8462 45.9157Z" fill="#3C92CA"/>
        <path d="M29.6842 65.6842H16.0118C8.92296 65.6842 3.15791 59.9192 3.15791 52.8303V15.3802C3.15791 8.29137 8.92296 2.52632 16.0118 2.52632H53.4619C60.5508 2.52632 66.3158 8.29137 66.3158 15.3802V41.6842C66.3158 42.3827 66.8804 42.9474 67.579 42.9474C68.2775 42.9474 68.8421 42.3827 68.8421 41.6842V15.3802C68.8421 6.89937 61.9427 0 53.4619 0H16.0118C7.53096 0 0.631592 6.89937 0.631592 15.3802V52.8303C0.631592 61.3112 7.53096 68.2105 16.0118 68.2105H29.6842C30.3827 68.2105 30.9474 67.6459 30.9474 66.9474C30.9474 66.2488 30.3827 65.6842 29.6842 65.6842Z" fill="#63676B"/>
    </g>
    <defs>
        <clipPath id="clip0_49_3613">
            <rect width="72" height="72" fill="white"/>
        </clipPath>
    </defs>
</svg>
