<svg width="17" height="17" viewBox="0 0 17 17" fill="none" xmlns="http://www.w3.org/2000/svg">
    <g clip-path="url(#clip0_48_2250)">
        <path d="M8.5 0C3.8131 0 0 3.81305 0 8.5C0 13.1868 3.8131 17 8.5 17C13.1869 17 17 13.1868 17 8.5C17 3.81305 13.1869 0 8.5 0ZM8.5 15.4545C4.66526 15.4545 1.54545 12.3347 1.54545 8.5C1.54545 4.66526 4.66526 1.54545 8.5 1.54545C12.3347 1.54545 15.4545 4.66526 15.4545 8.5C15.4545 12.3347 12.3347 15.4545 8.5 15.4545Z" fill="#1C5F9E"/>
        <path d="M10.9041 6.54857L9.27266 8.17985V3.86355C9.27266 3.43674 8.92668 3.09082 8.49993 3.09082C8.07318 3.09082 7.72721 3.43674 7.72721 3.86355V8.17985L6.09598 6.54857C5.79425 6.24684 5.30496 6.24684 5.00319 6.54857C4.70141 6.8504 4.70141 7.33958 5.00319 7.64136L7.95351 10.5917C8.1044 10.7426 8.30217 10.8181 8.49988 10.8181C8.6976 10.8181 8.89541 10.7426 9.0463 10.5918L11.9968 7.64146C12.2986 7.33974 12.2986 6.85045 11.9969 6.54857C11.6951 6.24684 11.2058 6.24684 10.9041 6.54857Z" fill="#1C5F9E"/>
        <path d="M10.0455 12.3635H6.95461C6.52786 12.3635 6.18188 12.7094 6.18188 13.1363C6.18188 13.563 6.52786 13.909 6.95461 13.909H10.0455C10.4723 13.909 10.8182 13.563 10.8182 13.1363C10.8182 12.7094 10.4723 12.3635 10.0455 12.3635Z" fill="#1C5F9E"/>
    </g>
    <defs>
        <clipPath id="clip0_48_2250">
            <rect width="17" height="17" fill="white"/>
        </clipPath>
    </defs>
</svg>
