<svg width="72" height="72" viewBox="0 0 72 72" fill="none" xmlns="http://www.w3.org/2000/svg">
    <g clip-path="url(#clip0_48_2608)">
        <path d="M2.16877 58.9161L30.7217 7.24987C33.016 3.09835 38.9838 3.09835 41.2781 7.24987L69.831 58.9161C72.0524 62.9354 69.1451 67.8637 64.5528 67.8637H7.44701C2.85469 67.8637 -0.052569 62.9356 2.16877 58.9161Z" fill="white"/>
        <path d="M0.938128 58.2359L29.491 6.56974C30.8198 4.16545 33.253 2.7301 36.0001 2.7301C38.7472 2.7301 41.1803 4.1656 42.5091 6.56974L71.062 58.2359C72.3484 60.5637 72.3096 63.321 70.9584 65.6118C69.6071 67.9025 67.2124 69.2701 64.5529 69.2701H7.44701C4.78753 69.2701 2.39287 67.9025 1.04159 65.6118C-0.30968 63.321 -0.348313 60.5637 0.938128 58.2359ZM35.9999 5.54248C34.2918 5.54248 32.7785 6.43504 31.9523 7.93019L3.3994 59.5962C2.5995 61.0437 2.62348 62.7583 3.46379 64.1826C4.3041 65.607 5.79318 66.4576 7.44701 66.4576H64.5529C66.2068 66.4576 67.6959 65.6072 68.5362 64.1826C69.3765 62.7583 69.4005 61.0437 68.6006 59.5962L40.0475 7.93004C39.2213 6.43504 37.7082 5.54248 35.9999 5.54248Z" fill="#63676B"/>
        <path d="M29.768 58.0771C29.3518 58.0771 28.9305 57.9664 28.5491 57.7342C27.4417 57.0596 27.0909 55.6153 27.7653 54.5079L35.0289 42.5827H29.7704C28.8943 42.5827 28.0911 42.0948 27.6872 41.3173C27.2834 40.5397 27.346 39.602 27.8497 38.8852L37.287 25.4569C38.0326 24.3961 39.4971 24.1409 40.5575 24.886C41.6182 25.6316 41.8738 27.0958 41.1284 28.1565L34.2897 37.8872H39.2077C40.0563 37.8872 40.8389 38.3452 41.2544 39.085C41.67 39.8248 41.654 40.7313 41.2126 41.4561L31.7753 56.9501C31.333 57.6763 30.5599 58.0771 29.768 58.0771Z" fill="#3C92CA"/>
        <path d="M29.7684 59.4833C29.7683 59.4833 29.7683 59.4833 29.7684 59.4833C29.081 59.4833 28.4066 59.2937 27.8177 58.9352C26.05 57.8586 25.4877 55.5444 26.5644 53.7767L32.526 43.989H29.7705C28.3642 43.989 27.0878 43.2137 26.4393 41.9657C25.791 40.7178 25.8907 39.2277 26.6992 38.077L36.1365 24.6487C36.7131 23.8284 37.5746 23.2815 38.5626 23.1092C39.5505 22.9375 40.5459 23.1595 41.3661 23.7359C43.0594 24.9261 43.4689 27.272 42.2791 28.9653L36.9968 36.4816H39.2078C40.5629 36.4816 41.817 37.2155 42.4805 38.3967C43.1442 39.578 43.1186 41.0308 42.4136 42.1881L32.9762 57.6819C32.2891 58.8098 31.0898 59.4832 29.7684 59.4833ZM39.2096 25.8687C38.9122 25.8696 38.6181 26.0085 38.4372 26.2656L28.9999 39.6938C28.7971 39.9823 28.7721 40.356 28.9346 40.6691C29.0972 40.982 29.4173 41.1765 29.7701 41.1765H35.0286C35.5369 41.1765 36.0057 41.4508 36.2547 41.8938C36.5036 42.337 36.494 42.8801 36.2295 43.3142L28.9662 55.2396C28.6962 55.6829 28.8372 56.2631 29.2805 56.5331C29.4308 56.6246 29.5948 56.6709 29.768 56.6709C30.1004 56.6708 30.4018 56.5017 30.5744 56.2187L40.0117 40.7249C40.1884 40.4348 40.195 40.0702 40.0283 39.774C39.8621 39.4778 39.5475 39.2938 39.2077 39.2938H34.2897C33.7648 39.2938 33.2838 39.0016 33.0419 38.5358C32.7999 38.0702 32.8376 37.5086 33.1393 37.0792L39.978 27.3483C40.2764 26.9237 40.1736 26.3353 39.749 26.0369C39.5863 25.9226 39.3973 25.8681 39.2096 25.8687Z" fill="#63676B"/>
        <path d="M14.2038 63.5613H8.29779C7.52128 63.5613 6.8916 62.9316 6.8916 62.1551C6.8916 61.3786 7.52128 60.7489 8.29779 60.7489H14.2038C14.9803 60.7489 15.61 61.3786 15.61 62.1551C15.61 62.9316 14.9804 63.5613 14.2038 63.5613Z" fill="#3C92CA"/>
        <path d="M63.5495 60.5331C63.0621 60.5331 62.5886 60.2795 62.3285 59.8266L59.3885 54.7044C59.0019 54.0307 59.2346 53.1715 59.9082 52.7848C60.5818 52.3982 61.4411 52.6311 61.8277 53.3045L64.7677 58.4268C65.1543 59.1004 64.9216 59.9597 64.248 60.3463C64.0275 60.4728 63.7868 60.5331 63.5495 60.5331Z" fill="#3C92CA"/>
        <path d="M20.6723 63.5613H19.6879C18.9114 63.5613 18.2817 62.9316 18.2817 62.1551C18.2817 61.3786 18.9114 60.7489 19.6879 60.7489H20.6723C21.4488 60.7489 22.0784 61.3786 22.0784 62.1551C22.0784 62.9316 21.4489 63.5613 20.6723 63.5613Z" fill="#3C92CA"/>
    </g>
    <defs>
        <clipPath id="clip0_48_2608">
            <rect width="72" height="72" fill="white"/>
        </clipPath>
    </defs>
</svg>
