<svg width="73" height="73" viewBox="0 0 73 73" fill="none" xmlns="http://www.w3.org/2000/svg">
    <path d="M43.3447 16.7514C43.3447 13.2647 46.1712 10.4382 49.6579 10.4382C53.1447 10.4382 55.9712 13.2647 55.9712 16.7514H43.3447Z" fill="#3C92CA"/>
    <path d="M53.1948 67.496H19.805C9.67017 67.496 1.4541 59.2801 1.4541 49.1451V43.0918H71.5458V49.1451C71.5458 59.2801 63.3297 67.496 53.1948 67.496Z" fill="white"/>
    <path d="M71.5458 41.6377H66.628V10.2858C66.628 5.19575 62.4869 1.05457 57.3968 1.05457C52.7033 1.05457 48.8195 4.57639 48.2423 9.11565C44.6334 9.7832 41.8905 12.9521 41.8905 16.7514C41.8905 17.5544 42.5416 18.2056 43.3446 18.2056H55.971C56.774 18.2056 57.4252 17.5544 57.4252 16.7514C57.4252 12.9898 54.7369 9.84479 51.1808 9.1349C51.7236 6.19622 54.3034 3.96273 57.397 3.96273C60.8836 3.96273 63.7197 6.79918 63.7197 10.2855V41.6376H1.45415C0.651012 41.6377 0 42.2889 0 43.0919V49.1452C0 59.1566 7.46739 67.4558 17.1246 68.7682V70.4912C17.1246 71.2943 17.7756 71.9454 18.5788 71.9454C19.3819 71.9454 20.0329 71.2943 20.0329 70.4912V68.9503H52.9668V70.4912C52.9668 71.2943 53.6179 71.9454 54.4209 71.9454C55.2239 71.9454 55.8751 71.2943 55.8751 70.4912V68.7682C65.5326 67.4559 73 59.1567 73 49.1452V43.0919C73 42.2889 72.3488 41.6377 71.5458 41.6377ZM54.2946 15.2974H45.0212C45.6407 13.3261 47.4848 11.8926 49.658 11.8926C51.8311 11.8926 53.6751 13.3263 54.2946 15.2974ZM70.0917 49.1452C70.0917 58.4619 62.5118 66.042 53.1949 66.042H19.8051C10.4883 66.042 2.90831 58.4621 2.90831 49.1452V44.546H70.0916V49.1452H70.0917Z" fill="#63676B"/>
    <path d="M39.5264 50.1214H41.7566C42.5596 50.1214 43.2108 49.4703 43.2108 48.6673C43.2108 47.8643 42.5596 47.2131 41.7566 47.2131H39.5264C38.7234 47.2131 38.0723 47.8643 38.0723 48.6673C38.0721 49.4703 38.7234 50.1214 39.5264 50.1214Z" fill="#63676B"/>
    <path d="M48.7662 50.1214H66.289C67.092 50.1214 67.7432 49.4703 67.7432 48.6673C67.7432 47.8643 67.092 47.2131 66.289 47.2131H48.7662C47.9632 47.2131 47.312 47.8643 47.312 48.6673C47.312 49.4703 47.963 50.1214 48.7662 50.1214Z" fill="#63676B"/>
</svg>
