<svg width="72" height="72" viewBox="0 0 72 72" fill="none" xmlns="http://www.w3.org/2000/svg">
    <path d="M31.6795 23.0401C38.0315 23.0401 43.1993 17.8722 43.1993 11.5202C43.1993 5.1683 38.0315 0 31.6795 0C25.3276 0 20.1597 5.1679 20.1597 11.5198C20.1597 17.8718 25.3276 23.0401 31.6795 23.0401ZM31.6795 2.88016C35.9521 2.88016 39.5006 6.00061 40.1896 10.0802H30.2398V12.9603H40.1896C39.5006 17.0399 35.9525 20.1603 31.6795 20.1603C26.915 20.1603 23.0394 16.2847 23.0394 11.5202C23.0394 6.75578 26.9154 2.88016 31.6795 2.88016Z" fill="#3C92CA"/>
    <path d="M56.1599 48.9599C56.9551 48.9599 57.6 48.3149 57.6 47.5198C57.6 46.7246 56.9551 46.0797 56.1599 46.0797H37.3839C36.5888 46.0797 35.9438 46.7246 35.9438 47.5198C35.9438 48.3149 36.5888 48.9599 37.3839 48.9599H56.1599Z" fill="#3C92CA"/>
    <path d="M28.7994 47.5203C28.7994 46.7251 28.1544 46.0802 27.3593 46.0802H8.58412C7.78897 46.0802 7.14404 46.7251 7.14404 47.5203C7.14404 48.3154 7.78897 48.9604 8.58412 48.9604H27.3597C28.1544 48.96 28.7994 48.3154 28.7994 47.5203Z" fill="#3C92CA"/>
    <path d="M10.0797 37.4401H53.2797C54.0749 37.4401 54.7198 36.7952 54.7198 36C54.7198 35.2049 54.0749 34.5599 53.2797 34.5599H10.0797C9.28458 34.5599 8.63965 35.2049 8.63965 36C8.64005 36.7952 9.28458 37.4401 10.0797 37.4401Z" fill="#63676B"/>
    <path d="M59.7083 51.8401C59.59 51.8401 59.4842 51.8805 59.3739 51.9075C59.2637 51.8805 59.1579 51.8401 59.0395 51.8401H17.9997C17.2045 51.8401 16.5596 52.485 16.5596 53.2802C16.5596 54.0753 17.2045 54.7203 17.9997 54.7203H59.0399C59.1583 54.7203 59.2641 54.6799 59.3743 54.6528C59.4846 54.6799 59.59 54.7203 59.7087 54.7203C61.7218 54.7203 63.3598 56.6583 63.3598 59.0401C63.3598 61.4223 61.7214 63.3599 59.7087 63.3599C58.9135 63.3599 58.2686 64.0049 58.2686 64.8C58.2686 65.5952 58.9135 66.2401 59.7087 66.2401C63.3101 66.2401 66.2399 63.0098 66.2399 59.0401C66.2395 55.0704 63.3101 51.8401 59.7083 51.8401Z" fill="#63676B"/>
    <path d="M42.4286 57.6C42.3102 57.6 42.2044 57.6404 42.0942 57.6674C41.9839 57.6404 41.8781 57.6 41.7598 57.6H20.1598C19.3647 57.6 18.7197 58.2449 18.7197 59.0401C18.7197 59.8352 19.3647 60.4801 20.1598 60.4801H41.7598C41.8781 60.4801 41.9839 60.4398 42.0942 60.4127C42.2044 60.4398 42.3098 60.4801 42.4286 60.4801C44.4417 60.4801 46.0796 62.4177 46.0796 64.8C46.0796 67.1822 44.4413 69.1198 42.4286 69.1198C41.6334 69.1198 40.9885 69.7647 40.9885 70.5599C40.9885 71.355 41.6334 72 42.4286 72C46.03 72 48.9598 68.7697 48.9598 64.8C48.9598 60.8303 46.0296 57.6 42.4286 57.6Z" fill="#3C92CA"/>
    <path d="M64.0285 28.8C63.2334 28.8 62.5885 29.445 62.5885 30.2401C62.5885 31.0353 63.2334 31.6802 64.0285 31.6802C66.0417 31.6802 67.6796 33.6182 67.6796 36C67.6796 38.3819 66.0413 40.3199 64.0285 40.3199C63.9102 40.3199 63.8044 40.3603 63.6942 40.3873C63.5839 40.3603 63.4781 40.3199 63.3598 40.3199H2.88002C2.08487 40.3199 1.43994 40.9648 1.43994 41.76C1.43994 42.5551 2.08487 43.2 2.88002 43.2H63.3602C63.4785 43.2 63.5843 43.1597 63.6946 43.1326C63.8048 43.1597 63.9102 43.2 64.0289 43.2C67.6304 43.2 70.5602 39.9698 70.5602 36C70.5602 32.0303 67.6295 28.8 64.0285 28.8Z" fill="#63676B"/>
</svg>
