<svg width="18" height="14" viewBox="0 0 18 14" fill="none" xmlns="http://www.w3.org/2000/svg">
    <path d="M13.2692 12.7956H1.26923C0.951092 12.7956 0.692308 12.5368 0.692308 12.2187V1.78129C0.692308 1.46315 0.951092 1.20436 1.26923 1.20436H16.7308C17.0489 1.20436 17.3077 1.46315 17.3077 1.78129V8.75716C17.3077 8.94833 17.4626 9.10332 17.6538 9.10332C17.8451 9.10332 18 8.94833 18 8.75716V1.78129C18 1.08141 17.4306 0.512054 16.7308 0.512054H1.26923C0.5694 0.512054 0 1.08141 0 1.78129V12.2187C0 12.9186 0.5694 13.4879 1.26923 13.4879H13.2692C13.4604 13.4879 13.6154 13.3329 13.6154 13.1418C13.6154 12.9506 13.4604 12.7956 13.2692 12.7956Z" fill="#2B87DE"/>
    <path d="M16.508 1.99225C16.3696 1.86039 16.1505 1.86556 16.0186 2.00406L9.38617 8.96388C9.28278 9.07243 9.14557 9.1322 8.99995 9.1322C8.85434 9.1322 8.71712 9.07243 8.61374 8.96393L1.98134 2.00402C1.84938 1.8656 1.63038 1.86039 1.49192 1.9922C1.35351 2.12411 1.34824 2.3432 1.48011 2.48162L5.77601 6.98965L1.47955 11.5189C1.34797 11.6576 1.35374 11.8767 1.49248 12.0083C1.5594 12.0718 1.64511 12.1033 1.73063 12.1033C1.82224 12.1033 1.91377 12.0671 1.9818 11.9954L6.25417 7.49148L8.11246 9.44152C8.34785 9.68849 8.66303 9.82451 8.99991 9.82451C9.33678 9.82451 9.65197 9.68849 9.88735 9.44148L11.7456 7.49148L14.3495 10.2364C14.4175 10.3082 14.509 10.3443 14.6006 10.3443C14.6862 10.3443 14.7719 10.3128 14.8388 10.2493C14.9775 10.1177 14.9833 9.89863 14.8517 9.75994L12.2238 6.9896L16.5197 2.48157C16.6517 2.34325 16.6464 2.12411 16.508 1.99225Z" fill="#2B87DE"/>
</svg>
