<svg width="73" height="72" viewBox="0 0 73 72" fill="none" xmlns="http://www.w3.org/2000/svg">
    <path d="M37.0936 71.7109L40.7266 70.2132C42.6691 69.4124 43.5885 67.1733 42.7878 65.2456L41.8536 62.9917C43.6775 61.6423 45.2641 60.0408 46.6284 58.2169L48.8823 59.1511C49.8165 59.5366 50.8545 59.5366 51.7887 59.1511C52.7229 58.7655 53.4643 58.0241 53.8499 57.0899L55.3624 53.4569C56.1631 51.5144 55.2437 49.2901 53.3012 48.4894L49.9648 47.1103C49.2085 46.7989 48.3633 47.1548 48.0519 47.911C47.7405 48.6673 48.0964 49.5125 48.8526 49.8239L52.1891 51.203C52.6339 51.3809 52.8415 51.8999 52.6636 52.3448L51.1511 55.9778C51.0621 56.1854 50.899 56.3633 50.6766 56.4523C50.469 56.5413 50.2317 56.5413 50.0093 56.4523L46.6728 55.0732C46.0204 54.8063 45.279 55.0287 44.8934 55.6071C43.3957 57.861 41.4977 59.7591 39.2437 61.2567C38.6654 61.6423 38.4282 62.3985 38.6951 63.0362L40.0741 66.3726C40.2521 66.8174 40.0445 67.3216 39.5996 67.5144L35.9666 69.0121C35.759 69.101 35.5218 69.101 35.2994 69.0121C35.0918 68.9231 34.9138 68.76 34.8248 68.5375L33.4458 65.2011C33.1789 64.5487 32.4968 64.178 31.7998 64.3262C29.1603 64.8601 26.4615 64.8452 23.8221 64.3262C23.1399 64.1928 22.443 64.5635 22.1761 65.2011L20.797 68.5375C20.6191 68.9824 20.1001 69.19 19.6552 69.0121L16.0222 67.4995C15.8146 67.4106 15.6367 67.2475 15.5477 67.025C15.4588 66.8174 15.4588 66.5802 15.5477 66.3577L16.9268 63.0213C17.1937 62.3689 16.9713 61.6274 16.393 61.2419C14.139 59.7442 12.241 57.8462 10.7433 55.5922C10.3577 55.0139 9.60148 54.7767 8.96386 55.0436L5.62743 56.4226C5.405 56.5116 5.18258 56.5116 4.96015 56.4226C4.75255 56.3337 4.57461 56.1705 4.48563 55.9481L2.98795 52.3151C2.89898 52.1075 2.89898 51.8703 2.98795 51.6478C3.07692 51.4402 3.24004 51.2623 3.46247 51.1733L6.79889 49.7943C7.45134 49.5274 7.80723 48.8452 7.67377 48.1483C7.13994 45.5088 7.15477 42.81 7.67377 40.1705C7.80723 39.4884 7.43651 38.7915 6.79889 38.5246L3.46247 37.1455C3.01761 36.9676 2.81001 36.4486 2.98795 36.0037L4.50046 32.3707C4.67841 31.9259 5.1974 31.7183 5.64226 31.8962L8.97868 33.2753C9.63114 33.5422 10.3726 33.3198 10.7581 32.7414C12.2558 30.4875 14.1538 28.5894 16.4078 27.0918C16.9861 26.7062 17.2234 25.95 16.9564 25.3123L15.5774 21.9759C15.4884 21.7683 15.4884 21.5311 15.5774 21.3086C15.6664 21.101 15.8295 20.9231 16.0519 20.8341L19.6849 19.3364C19.8925 19.2475 20.1297 19.2475 20.3522 19.3364C20.5598 19.4254 20.7377 19.5885 20.8267 19.8109L22.2057 23.1474C22.5171 23.9036 23.3772 24.2595 24.1186 23.9481C24.8749 23.6367 25.2308 22.7767 24.9194 22.0352L23.5403 18.6988C23.1548 17.7646 22.4133 17.0232 21.4791 16.6376C21.0046 16.4449 20.5153 16.3411 20.0259 16.3411C19.5366 16.3411 19.0324 16.4449 18.5728 16.6376L14.9398 18.1353C14.0056 18.5209 13.2641 19.2623 12.8786 20.1965C12.493 21.1307 12.493 22.1687 12.8786 23.1029L13.8128 25.3568C11.9889 26.7062 10.4022 28.3077 9.038 30.1316L6.78406 29.1974C4.84152 28.3967 2.61724 29.316 1.8165 31.2586L0.289157 34.8916C-0.511585 36.8341 0.407785 39.0584 2.35032 39.8591L4.60426 40.7933C4.27804 43.0324 4.27804 45.3012 4.60426 47.5403L2.35032 48.4745C1.41613 48.8601 0.674699 49.6015 0.289157 50.5357C-0.0963855 51.4699 -0.0963855 52.5079 0.289157 53.4421L1.78684 57.0751C2.17238 58.0093 2.91381 58.7507 3.84801 59.1362C4.78221 59.5218 5.8202 59.5218 6.7544 59.1362L9.00834 58.202C10.3577 60.026 11.9592 61.6126 13.7831 62.9768L12.8489 65.2308C12.4634 66.165 12.4634 67.203 12.8489 68.1372C13.2345 69.0714 13.9759 69.8128 14.9101 70.1983L18.5431 71.7109C20.4856 72.5116 22.7099 71.5922 23.5107 69.6497L24.4449 67.3957C26.684 67.722 28.9527 67.722 31.1918 67.3957L32.126 69.6497C32.5116 70.5839 33.253 71.3253 34.1872 71.7109C35.1214 72.0964 36.1594 72.0964 37.0936 71.7109Z" fill="#63676B"/>
    <path d="M15.8889 44.2633C15.9334 50.8175 21.2865 56.1113 27.8259 56.1113C27.8556 56.1113 27.8852 56.1113 27.9149 56.1113C31.103 56.0816 34.0984 54.8212 36.3375 52.5524C38.5766 50.2836 39.7926 47.2734 39.7777 44.0853C39.7777 43.2846 39.1105 42.6321 38.3097 42.6321H38.2949C37.4793 42.6321 36.8269 43.2994 36.8417 44.115C36.8565 46.5172 35.9371 48.786 34.2467 50.5061C32.5562 52.2262 30.3023 53.1752 27.9001 53.19C27.8852 53.19 27.8556 53.19 27.8408 53.19C22.9029 53.19 18.8695 49.1863 18.8398 44.2484C18.8102 39.2809 22.8139 35.2178 27.7814 35.1734C28.597 35.1734 29.2495 34.5061 29.2346 33.6905C29.2346 32.8898 28.5674 32.2373 27.7666 32.2373C27.7666 32.2373 27.7666 32.2373 27.7518 32.2373C21.1531 32.2818 15.8445 37.6794 15.8889 44.2633Z" fill="#63676B"/>
    <path d="M52.6041 0H49.7422C47.9925 0 46.5689 1.42354 46.5689 3.17331V4.64134C45.1454 5.02688 43.7811 5.59036 42.5059 6.33179L41.4679 5.29379C40.8748 4.70065 40.074 4.35959 39.2288 4.35959C38.3836 4.35959 37.5828 4.68582 36.9897 5.29379L34.973 7.31047C34.3799 7.90361 34.0388 8.70436 34.0388 9.54958C34.0388 10.3948 34.365 11.1956 34.973 11.7887L36.011 12.8267C35.2696 14.1019 34.7061 15.4662 34.3205 16.8897H32.8525C31.1027 16.8897 29.6792 18.3133 29.6792 20.063V22.9249C29.6792 24.6747 31.1027 26.0982 32.8525 26.0982H34.3205C34.7061 27.5218 35.2696 28.886 36.011 30.1613L34.973 31.1993C34.3799 31.7924 34.0388 32.5931 34.0388 33.4384C34.0388 34.2836 34.365 35.0843 34.973 35.6775L36.9897 37.6942C37.5828 38.2873 38.3836 38.6284 39.2288 38.6284C40.074 38.6284 40.8748 38.3021 41.4679 37.6942L42.5059 36.6562C43.7811 37.3976 45.1454 37.9611 46.5689 38.3466V39.8146C46.5689 41.5644 47.9925 42.988 49.7422 42.988H52.6041C54.3539 42.988 55.7774 41.5644 55.7774 39.8146V38.3466C57.201 37.9611 58.5652 37.3976 59.8405 36.6562L60.8785 37.6942C61.4716 38.2873 62.2723 38.6284 63.1176 38.6284C63.9628 38.6284 64.7635 38.3021 65.3567 37.6942L67.3734 35.6775C68.6041 34.4467 68.6041 32.43 67.3734 31.1993L66.3354 30.1613C67.0768 28.886 67.6403 27.5218 68.0258 26.0982H69.4938C71.2436 26.0982 72.6672 24.6747 72.6672 22.9249V20.063C72.6672 18.3133 71.2436 16.8897 69.4938 16.8897H68.0258C67.6403 15.4662 67.0768 14.1019 66.3354 12.8267L67.3734 11.7887C68.6041 10.5579 68.6041 8.54124 67.3734 7.31047L65.3567 5.29379C64.7635 4.70065 63.9628 4.35959 63.1176 4.35959C62.2723 4.35959 61.4716 4.68582 60.8785 5.29379L59.8405 6.33179C58.5652 5.59036 57.201 5.02688 55.7774 4.64134V3.17331C55.7626 1.42354 54.3391 0 52.6041 0ZM59.2325 9.4013C59.4846 9.56441 59.7663 9.65338 60.0481 9.65338C60.4336 9.65338 60.8043 9.5051 61.0861 9.22336L62.9396 7.36979C62.9989 7.31047 63.0583 7.29564 63.1027 7.29564C63.1472 7.29564 63.2065 7.31047 63.2659 7.36979L65.2825 9.38647C65.3715 9.47544 65.3715 9.62373 65.2825 9.7127L63.429 11.5663C62.9396 12.0556 62.8507 12.8415 63.251 13.4198C64.3187 15.0065 65.0453 16.7711 65.416 18.6395C65.5495 19.3216 66.1574 19.8258 66.8544 19.8258H69.479C69.6125 19.8258 69.7163 19.9296 69.7163 20.063V22.9249C69.7163 23.0584 69.6125 23.1622 69.479 23.1622H66.8544C66.1574 23.1622 65.5495 23.6515 65.416 24.3485C65.0453 26.2169 64.3187 27.9815 63.251 29.5681C62.8655 30.1464 62.9396 30.9323 63.429 31.4217L65.2825 33.2753C65.3715 33.3642 65.3715 33.5125 65.2825 33.6015L63.2659 35.6182C63.2065 35.6775 63.1472 35.6923 63.1027 35.6923C63.0583 35.6923 62.9989 35.6775 62.9396 35.6182L61.0861 33.7349C60.5967 33.2456 59.8108 33.1566 59.2325 33.557C57.6458 34.6247 55.8812 35.3513 54.0128 35.722C53.3307 35.8554 52.8266 36.4634 52.8266 37.1603V39.785C52.8266 39.9184 52.7228 40.0222 52.5893 40.0222H49.7274C49.5939 40.0222 49.4901 39.9184 49.4901 39.785V37.1603C49.4901 36.4634 49.0008 35.8554 48.3039 35.722C46.4355 35.3513 44.6709 34.6247 43.0842 33.557C42.5059 33.1715 41.72 33.2456 41.2306 33.7349L39.3771 35.5885C39.3178 35.6478 39.2584 35.6627 39.214 35.6627C39.1695 35.6627 39.1102 35.6478 39.0508 35.5885L37.0342 33.5718C36.9748 33.5125 36.96 33.4532 36.96 33.4087C36.96 33.3642 36.9748 33.3049 37.0342 33.2456L38.8877 31.392C39.3771 30.9027 39.466 30.1168 39.0657 29.5385C37.998 27.9518 37.2714 26.1872 36.9007 24.3188C36.7672 23.6367 36.1593 23.1325 35.4623 23.1325H32.8377C32.7042 23.1325 32.6004 23.0287 32.6004 22.8953V20.0334C32.6004 19.8999 32.7042 19.7961 32.8377 19.7961H35.4623C36.1593 19.7961 36.7672 19.3068 36.9007 18.6098C37.2714 16.7414 37.998 14.9768 39.0657 13.3902C39.4512 12.8119 39.3771 12.026 38.8877 11.5366L37.0342 9.68304C36.9748 9.62373 36.96 9.56441 36.96 9.51993C36.96 9.47544 36.9748 9.41613 37.0342 9.35681L39.0508 7.34013C39.1102 7.28082 39.1695 7.26599 39.214 7.26599C39.2584 7.26599 39.3178 7.28082 39.3771 7.34013L41.2306 9.1937C41.72 9.68304 42.5059 9.77201 43.0842 9.37164C44.6709 8.30399 46.4355 7.57739 48.3039 7.20667C48.986 7.07322 49.4901 6.46525 49.4901 5.7683V3.17331C49.4901 3.03985 49.5939 2.93605 49.7274 2.93605H52.5893C52.7228 2.93605 52.8266 3.03985 52.8266 3.17331V5.79796C52.8266 6.4949 53.3159 7.10287 54.0128 7.23633C55.8812 7.60704 57.6458 8.33364 59.2325 9.4013Z" fill="#3C92CA"/>
    <path d="M42.4614 21.4716C42.4614 26.2761 46.3762 30.1908 51.1806 30.1908C55.9851 30.1908 59.8998 26.2761 59.8998 21.4716C59.8998 16.6672 55.9851 12.7524 51.1806 12.7524C46.3762 12.7524 42.4614 16.6672 42.4614 21.4716ZM56.9489 21.4716C56.9489 24.6598 54.3539 27.2548 51.1658 27.2548C47.9776 27.2548 45.3826 24.6598 45.3826 21.4716C45.3826 18.2835 47.9776 15.6885 51.1658 15.6885C54.3539 15.6885 56.9489 18.2983 56.9489 21.4716Z" fill="#3C92CA"/>
</svg>
