<svg width="72" height="72" viewBox="0 0 72 72" fill="none" xmlns="http://www.w3.org/2000/svg">
    <g clip-path="url(#clip0_49_3037)">
        <path d="M62.923 59.8618C68.5639 53.5047 72 45.1477 72 36C72 26.4823 68.2808 17.8225 62.2279 11.3785V11.3772C62.2229 11.3698 62.2154 11.3673 62.2117 11.3611C55.9068 4.6589 47.0731 0.36869 37.2476 0.0322759L37.2463 0.0310345L36.545 0.0124138C36.3637 0.0062069 36.1825 0 36 0C35.8175 0 35.6363 0.0062069 35.455 0.0124138L34.7561 0.0310345L34.7549 0.0322759C24.9294 0.36869 16.0957 4.6589 9.79076 11.3611C9.78579 11.3673 9.77834 11.3698 9.77462 11.3772C9.77462 11.3772 9.77462 11.3785 9.77338 11.3797C3.71917 17.8225 0 26.4823 0 36C0 45.1477 3.43614 53.5047 9.07697 59.8618C9.08441 59.873 9.08441 59.8854 9.0931 59.8965C9.11545 59.9276 9.14772 59.9425 9.17131 59.971C15.5098 67.0568 24.6041 71.6214 34.7537 71.969L34.7549 71.9702L35.4538 71.9888C35.6363 71.9938 35.8175 72 36 72C36.1825 72 36.3637 71.9938 36.545 71.9876L37.2439 71.969L37.2451 71.9677C47.4058 71.6189 56.5101 67.0457 62.8485 59.945C62.8647 59.9239 62.8908 59.9177 62.9057 59.8953C62.9156 59.8854 62.9156 59.873 62.923 59.8618ZM2.51379 37.2414H17.4141C17.5543 42.5036 18.5822 47.6168 20.412 52.4073C16.8815 53.6847 13.5062 55.3978 10.3432 57.5354C5.69172 52.0026 2.79683 44.9503 2.51379 37.2414ZM11.021 13.6837C14.1095 15.6923 17.3979 17.3011 20.8279 18.5028C18.7274 23.6011 17.5655 29.0979 17.4141 34.7586H2.51379C2.81048 26.681 5.97352 19.3258 11.021 13.6837ZM69.4862 34.7586H54.5859C54.4345 29.0979 53.2725 23.6011 51.1721 18.5028C54.6021 17.3011 57.8905 15.6923 60.979 13.6837C66.0265 19.3258 69.1895 26.681 69.4862 34.7586ZM34.7586 18.5748C31.1698 18.473 27.6468 17.9379 24.2429 16.9821C26.7592 11.8204 30.312 7.16152 34.7586 3.28221V18.5748ZM34.7586 21.0575V34.7586H19.8968C20.0495 29.3611 21.1817 24.1262 23.2063 19.2724C26.9379 20.3537 30.8123 20.952 34.7586 21.0575ZM37.2414 21.0575C41.1877 20.952 45.0621 20.3549 48.7949 19.2724C50.8196 24.1262 51.9517 29.3611 52.1044 34.7586H37.2414V21.0575ZM37.2414 18.5748V3.28221C41.688 7.16152 45.2408 11.8204 47.7571 16.9821C44.3532 17.9379 40.8302 18.473 37.2414 18.5748ZM50.1629 16.2273C47.7782 11.2308 44.4687 6.67862 40.3709 2.77697C47.6404 3.72786 54.1812 7.01503 59.2188 11.8614C56.3586 13.6763 53.3247 15.1361 50.1629 16.2273ZM21.8371 16.2273C18.6753 15.1361 15.6414 13.6763 12.7825 11.8614C17.8188 7.01503 24.3608 3.72786 31.6303 2.77697C27.5313 6.67862 24.2218 11.2308 21.8371 16.2273ZM19.8968 37.2414H34.7586V49.7023C30.6534 49.8116 26.6313 50.4521 22.7657 51.6153C21.019 47.0781 20.0371 42.2305 19.8968 37.2414ZM34.7586 52.1851V68.7178C29.9992 64.5654 26.2676 59.5204 23.7302 53.9243C27.2892 52.8753 30.9861 52.2919 34.7586 52.1851ZM37.2414 68.7178V52.1851C41.0139 52.2906 44.7108 52.8753 48.2698 53.923C45.7324 59.5204 42.0008 64.5654 37.2414 68.7178ZM37.2414 49.7023V37.2414H52.1032C51.9629 42.2305 50.981 47.0781 49.2331 51.6166C45.3687 50.4521 41.3466 49.8116 37.2414 49.7023ZM54.5859 37.2414H69.4862C69.2032 44.9503 66.3095 52.0026 61.6568 57.5354C58.4938 55.3978 55.1185 53.6847 51.588 52.4073C53.419 47.6168 54.4457 42.5036 54.5859 37.2414ZM12.0302 59.395C14.9673 57.4436 18.0943 55.8745 21.3617 54.7014C23.7761 60.1138 27.2421 65.0458 31.6291 69.223C23.9934 68.2237 17.1596 64.6486 12.0302 59.395ZM40.3709 69.223C44.7579 65.047 48.2239 60.115 50.6383 54.7014C53.9057 55.8745 57.0314 57.4436 59.9698 59.395C54.8404 64.6486 48.0066 68.2237 40.3709 69.223Z" fill="#3C92CA"/>
    </g>
    <defs>
        <clipPath id="clip0_49_3037">
            <rect width="72" height="72" fill="white"/>
        </clipPath>
    </defs>
</svg>
