<svg width="65" height="65" viewBox="0 0 65 65" fill="none" xmlns="http://www.w3.org/2000/svg">
    <g clip-path="url(#clip0_49_2919)">
        <path d="M53.103 47.1216V63.7371H11.8965V47.1216V41.14V35.823H53.103V41.14V47.1216Z" fill="white"/>
        <path d="M53.103 3.92118V15.8844H11.8965V3.92118V1.2627H53.103V3.92118Z" fill="white"/>
        <path d="M13.2257 21.2014H18.5426V26.5184H7.90869V21.2014H13.2257Z" fill="#E7ECED"/>
        <path d="M58.8684 14.6217V14.7717H59.0184H61.0787C63.1582 14.7717 64.85 16.4635 64.85 18.5429V47.1217C64.85 47.7363 64.3518 48.2345 63.7372 48.2345H54.3661H54.216V48.3845V63.7372C54.216 64.3518 53.7179 64.85 53.1033 64.85H11.8967C11.2821 64.85 10.7839 64.3518 10.7839 63.7372V48.3845V48.2345H10.6339H1.26278C0.64817 48.2345 0.15 47.7363 0.15 47.1217V18.5429C0.15 16.4635 1.84183 14.7717 3.92127 14.7717H5.9816H6.1316V14.6217V3.92127C6.1316 3.30666 6.62977 2.80849 7.24438 2.80849H10.6339H10.7839V2.65849V1.26278C10.7839 0.64817 11.2821 0.15 11.8967 0.15H53.1033C53.7179 0.15 54.216 0.64817 54.216 1.26278V2.65849V2.80849H54.3661H57.7556C58.3702 2.80849 58.8684 3.30666 58.8684 3.92127V14.6217ZM56.6428 5.18405V5.03405H56.4928H54.3661H54.216V5.18405V14.6217V14.7717H54.3661H56.4928H56.6428V14.6217V5.18405ZM13.1595 2.37556H13.0095V2.52556V14.6217V14.7717H13.1595H51.8405H51.9905V14.6217V2.52556V2.37556H51.8405H13.1595ZM8.50716 5.03405H8.35716V5.18405V14.6217V14.7717H8.50716H10.6339H10.7839V14.6217V5.18405V5.03405H10.6339H8.50716ZM10.6339 40.0273H10.7839V39.8773V37.0859V36.9359H10.6339H9.17178H9.02178V37.0859V39.8773V40.0273H9.17178H10.6339ZM51.8405 62.6244H51.9905V62.4744V37.0859V36.9359H51.8405H13.1595H13.0095V37.0859V62.4744V62.6244H13.1595H51.8405ZM54.3661 36.9359H54.216V37.0859V39.8773V40.0273H54.3661H55.8282H55.9782V39.8773V37.0859V36.9359H55.8282H54.3661ZM62.4744 46.0089H62.6244V45.8589V18.5429C62.6244 17.6905 61.9312 16.9972 61.0787 16.9972H3.92127C3.06879 16.9972 2.37556 17.6905 2.37556 18.5429V45.8589V46.0089H2.52556H10.6339H10.7839V45.8589V42.4029V42.2529H10.6339H7.909C7.29439 42.2529 6.79622 41.7547 6.79622 41.1401V35.8231C6.79622 35.2085 7.29439 34.7103 7.909 34.7103H57.091C57.7056 34.7103 58.2038 35.2085 58.2038 35.8231V41.1401C58.2038 41.7547 57.7056 42.2529 57.091 42.2529H54.3661H54.216V42.4029V45.8589V46.0089H54.3661H62.4744Z" fill="#63676B" stroke="white" stroke-width="0.3"/>
        <path d="M18.5427 19.9387H7.90878C7.21132 19.9387 6.646 20.504 6.646 21.2015V26.5185C6.646 27.2159 7.21132 27.7813 7.90878 27.7813H18.5427C19.2402 27.7813 19.8055 27.2159 19.8055 26.5185V21.2015C19.8055 20.504 19.2402 19.9387 18.5427 19.9387ZM17.2799 25.2557H9.17156V22.4643H11.963V24.5246H14.4885V22.4643H17.2799V25.2557Z" fill="#63676B"/>
        <path d="M58.4204 20.6033H53.7681V23.1288H58.4204V20.6033Z" fill="#63676B"/>
        <path d="M58.4201 24.5911H51.7739V27.1166H58.4201V24.5911Z" fill="#63676B"/>
        <path d="M39.1464 27.9141H25.854V30.4396H39.1464V27.9141Z" fill="#63676B"/>
        <path d="M37.8171 23.2617H27.1831V25.7873H37.8171V23.2617Z" fill="#63676B"/>
        <path d="M42.4695 53.8345H17.2139V56.36H42.4695V53.8345Z" fill="#63676B"/>
        <path d="M47.7865 48.5173H17.2139V51.0429H47.7865V48.5173Z" fill="#63676B"/>
        <path d="M47.7865 43.2004H17.2139V45.726H47.7865V43.2004Z" fill="#63676B"/>
    </g>
    <defs>
        <clipPath id="clip0_49_2919">
            <rect width="65" height="65" fill="white"/>
        </clipPath>
    </defs>
</svg>
