<svg width="72" height="72" viewBox="0 0 72 72" fill="none" xmlns="http://www.w3.org/2000/svg">
    <path d="M62.95 14.0263L49.2653 0.34165C49.0467 0.122851 48.75 0 48.4407 0H12.3629C10.3479 0 8.7085 1.63936 8.7085 3.65443V68.3456C8.7085 70.3606 10.3479 72 12.3629 72H59.6372C61.6523 72 63.2917 70.3606 63.2917 68.3456V14.851C63.2917 14.5417 63.1688 14.245 62.95 14.0263ZM49.607 3.98193L59.3097 13.6847H50.9288C50.1999 13.6847 49.607 13.0917 49.607 12.3629V3.98193ZM59.6372 69.6674H12.3629C11.6341 69.6674 11.0411 69.0744 11.0411 68.3456V3.65443C11.0411 2.92556 11.6341 2.33261 12.3629 2.33261H47.2744V12.3629C47.2744 14.3779 48.9137 16.0173 50.9288 16.0173H60.959V68.3456C60.959 69.0744 60.3661 69.6674 59.6372 69.6674Z" fill="#63676B"/>
    <path d="M17.3392 9.79697H26.0476C26.6917 9.79697 27.2139 9.27477 27.2139 8.63066C27.2139 7.98655 26.6917 7.46436 26.0476 7.46436H17.3392C16.695 7.46436 16.1729 7.98655 16.1729 8.63066C16.1729 9.27477 16.695 9.79697 17.3392 9.79697Z" fill="#63676B"/>
    <path d="M17.3392 16.0172H31.0238C31.6679 16.0172 32.1901 15.495 32.1901 14.8509C32.1901 14.2068 31.6679 13.6846 31.0238 13.6846H17.3392C16.695 13.6846 16.1729 14.2068 16.1729 14.8509C16.1729 15.495 16.695 16.0172 17.3392 16.0172Z" fill="#63676B"/>
    <path d="M27.3696 24.8035C27.3696 25.4476 27.8918 25.9698 28.5359 25.9698H43.4647C44.1088 25.9698 44.631 25.4476 44.631 24.8035C44.631 24.1594 44.1088 23.6372 43.4647 23.6372H28.5359C27.8918 23.6372 27.3696 24.1594 27.3696 24.8035Z" fill="#3C92CA"/>
    <path d="M54.661 29.8574H17.3392C16.695 29.8574 16.1729 30.3796 16.1729 31.0237C16.1729 31.6678 16.695 32.19 17.3392 32.19H54.661C55.3051 32.19 55.8273 31.6678 55.8273 31.0237C55.8273 30.3796 55.3051 29.8574 54.661 29.8574Z" fill="#3C92CA"/>
    <path d="M39.7322 52.2505H31.0237C30.3796 52.2505 29.8574 52.7727 29.8574 53.4168C29.8574 54.0609 30.3796 54.5831 31.0237 54.5831H39.7322C40.3763 54.5831 40.8985 54.0609 40.8985 53.4168C40.8985 52.7727 40.3763 52.2505 39.7322 52.2505Z" fill="#63676B"/>
    <path d="M39.7322 58.4709H31.0237C30.3796 58.4709 29.8574 58.9931 29.8574 59.6373C29.8574 60.2814 30.3796 60.8036 31.0237 60.8036H39.7322C40.3763 60.8036 40.8985 60.2814 40.8985 59.6373C40.8985 58.9931 40.3763 58.4709 39.7322 58.4709Z" fill="#63676B"/>
    <path d="M54.661 36.0776H17.3392C16.695 36.0776 16.1729 36.5998 16.1729 37.2439C16.1729 37.8881 16.695 38.4103 17.3392 38.4103H54.661C55.3051 38.4103 55.8273 37.8881 55.8273 37.2439C55.8273 36.5998 55.3051 36.0776 54.661 36.0776Z" fill="#3C92CA"/>
    <path d="M54.661 42.2981H17.3392C16.695 42.2981 16.1729 42.8203 16.1729 43.4644C16.1729 44.1085 16.695 44.6307 17.3392 44.6307H54.661C55.3051 44.6307 55.8273 44.1085 55.8273 43.4644C55.8273 42.8203 55.3051 42.2981 54.661 42.2981Z" fill="#3C92CA"/>
    <path d="M49.6845 51.0066C46.2976 51.0066 43.542 53.7622 43.542 57.1491C43.542 60.5361 46.2976 63.2917 49.6845 63.2917C53.0715 63.2917 55.8271 60.5361 55.8271 57.1491C55.8271 53.7622 53.0715 51.0066 49.6845 51.0066ZM49.6845 60.9591C47.5838 60.9591 45.8746 59.2499 45.8746 57.1491C45.8746 55.0484 47.5838 53.3392 49.6845 53.3392C51.7853 53.3392 53.4945 55.0484 53.4945 57.1491C53.4945 59.2499 51.7853 60.9591 49.6845 60.9591Z" fill="#63676B"/>
    <path d="M49.6848 55.0496C48.5272 55.0496 47.5854 55.9913 47.5854 57.1489C47.5854 58.3065 48.5272 59.2483 49.6848 59.2483C50.8424 59.2483 51.7842 58.3065 51.7842 57.1489C51.7842 55.9913 50.8424 55.0496 49.6848 55.0496Z" fill="#63676B"/>
</svg>
