<svg width="72" height="72" viewBox="0 0 72 72" fill="none" xmlns="http://www.w3.org/2000/svg">
    <g clip-path="url(#clip0_49_3100)">
        <path d="M67.2048 28.5453C67.8798 28.5007 68.4046 27.9403 68.4046 27.2638V21.9679C68.4046 21.2913 67.8799 20.7309 67.2048 20.6864L63.6972 20.4552C63.3684 19.2845 62.9027 18.1616 62.3054 17.1001L64.6231 14.4544C65.0688 13.9457 65.0434 13.1784 64.5651 12.7001L60.8192 8.9539C60.3403 8.47535 59.573 8.45046 59.0645 8.89638L56.4203 11.2147C55.3583 10.6168 54.2353 10.1509 53.064 9.82211L52.8327 6.31564C52.7881 5.64064 52.2277 5.11597 51.5513 5.11597H46.2554C45.5788 5.11597 45.0183 5.64078 44.974 6.31578L44.7427 9.82183C43.5713 10.1506 42.4487 10.6166 41.3872 11.2144L38.7422 8.8961C38.2333 8.45004 37.4656 8.47535 36.9875 8.95404L33.242 12.6996C32.7631 13.1778 32.7378 13.9457 33.1837 14.4547L35.5022 17.0999C34.9044 18.1609 34.4384 19.2838 34.1095 20.4552L30.6031 20.6864C29.9281 20.7309 29.4033 21.2913 29.4033 21.9679V27.2638C29.4033 27.9403 29.928 28.5007 30.6031 28.5453L34.1095 28.7765C34.4384 29.9478 34.9046 31.0708 35.5022 32.1328L33.1839 34.7765C32.738 35.2853 32.763 36.0527 33.2413 36.5311L36.9888 40.2786C37.4673 40.7559 38.2337 40.7806 38.7419 40.3353L41.3872 38.0177C42.4488 38.615 43.5715 39.0806 44.7425 39.4093L44.9739 42.9169C45.0184 43.5919 45.5788 44.1167 46.2552 44.1167H51.5512C52.2276 44.1167 52.7881 43.592 52.8325 42.9169L53.0639 39.4093C54.2344 39.0806 55.3577 38.6147 56.42 38.0174L58.3868 39.7404C58.4 39.753 58.4134 39.7651 58.427 39.7771L59.065 40.3356C59.5735 40.7809 60.3406 40.7558 60.8189 40.2774L64.5648 36.5311C65.0431 36.0528 65.0683 35.2855 64.6225 34.7765L62.305 32.1322C62.9022 31.0698 63.368 29.9468 63.6968 28.7761L67.2048 28.5453ZM61.4198 27.2891C61.0944 28.8163 60.4964 30.2578 59.6431 31.5737C59.3305 32.0557 59.3758 32.6869 59.7546 33.119L61.8986 35.5653L59.8534 37.6107L57.4063 35.4667C56.9743 35.0884 56.3434 35.0426 55.8612 35.3555C54.5452 36.2091 53.1038 36.8069 51.5767 37.1321C51.0148 37.2518 50.6007 37.7304 50.5628 38.3037L50.349 41.5485H47.4576L47.2437 38.3037C47.2058 37.7302 46.7918 37.2518 46.2298 37.1321C44.702 36.8066 43.2612 36.2091 41.9469 35.3556C41.4653 35.0427 40.8337 35.0879 40.4014 35.4667L37.9529 37.6117L35.9079 35.5654L38.0533 33.1189C38.4324 32.6864 38.4778 32.0546 38.1644 31.5724C37.3105 30.258 36.7123 28.8166 36.3866 27.2885C36.2669 26.7266 35.7885 26.3125 35.2151 26.2746L31.9718 26.0608V23.1695L35.2151 22.9556C35.7885 22.9178 36.2669 22.5038 36.3866 21.9417C36.7123 20.413 37.3104 18.9724 38.164 17.6597C38.4777 17.1775 38.4323 16.5457 38.0533 16.1131L35.9083 13.6657L37.9537 11.6199L40.4013 13.7651C40.8337 14.1438 41.4651 14.1896 41.9479 13.8759C43.2608 13.0222 44.7013 12.4242 46.2299 12.0987C46.7919 11.979 47.206 11.5006 47.2438 10.9273L47.4578 7.68377H50.3491L50.563 10.9273C50.6008 11.5006 51.0148 11.9792 51.5769 12.0988C53.1048 12.4244 54.546 13.0225 55.8606 13.8763C56.3427 14.1895 56.9745 14.1444 57.4068 13.7651L59.8534 11.6201L61.8989 13.6658L59.7548 16.1139C59.3761 16.5461 59.3307 17.1775 59.6438 17.6594C60.4969 18.9734 61.0947 20.4144 61.4202 21.942C61.5399 22.5039 62.0183 22.9181 62.5917 22.9559L65.8365 23.1698V26.061L62.5917 26.2749C62.0178 26.3132 61.5396 26.7272 61.4198 27.2891Z" fill="#3C92CA"/>
        <path d="M48.9036 20.7688C46.782 20.7688 45.0562 22.4948 45.0562 24.6162C45.0562 26.7379 46.7822 28.4641 48.9036 28.4641C51.0255 28.4641 52.7517 26.7379 52.7517 24.6162C52.7516 22.4947 51.0254 20.7688 48.9036 20.7688ZM48.9036 25.8957C48.1984 25.8957 47.6245 25.3217 47.6245 24.6163C47.6245 23.9111 48.1983 23.3373 48.9036 23.3373C49.6092 23.3373 50.1832 23.9111 50.1832 24.6163C50.183 25.3218 49.609 25.8957 48.9036 25.8957Z" fill="#3C92CA"/>
        <path d="M48.9032 15.6318C43.9496 15.6318 39.9194 19.6619 39.9194 24.6155C39.9194 29.5703 43.9495 33.601 48.9032 33.601C53.858 33.601 57.8889 29.57 57.8889 24.6155C57.8887 19.662 53.8577 15.6318 48.9032 15.6318ZM48.9032 31.0326C45.3658 31.0326 42.4879 28.1539 42.4879 24.6156C42.4879 21.0782 45.3658 18.2005 48.9032 18.2005C52.4418 18.2005 55.3205 21.0784 55.3205 24.6156C55.3202 28.1539 52.4416 31.0326 48.9032 31.0326Z" fill="#3C92CA"/>
        <path d="M71.4276 58.361L53.8049 46.6141C53.3621 46.3189 52.783 46.3275 52.3486 46.6356L43.3914 53.0025C39.1106 50.4624 34.3312 46.6367 29.8464 42.1518C25.3627 37.6681 21.5369 32.8885 18.9957 28.6068L25.3637 19.6514C25.6724 19.2173 25.6812 18.6379 25.3857 18.1948L15.1632 2.86106C15.1511 2.84011 15.1381 2.81944 15.1244 2.79904L13.6384 0.571689C13.285 0.0416749 12.5968 -0.149012 12.0204 0.1238L6.14482 2.90592C5.85598 3.04261 5.62859 3.28209 5.50681 3.57768L0.0966907 16.7174C-0.0564496 17.0892 -0.0263559 17.5111 0.17755 17.8576L3.61625 23.7022C3.71356 23.8696 3.81242 24.0352 3.91268 24.2026C13.8709 40.9024 31.0961 58.1276 47.7931 68.0841C47.9608 68.1848 48.129 68.2855 48.292 68.3804L54.1426 71.8224C54.3425 71.9401 54.5675 71.9998 54.7938 71.9998C54.9596 71.9998 55.1257 71.9677 55.2829 71.903L68.4212 66.4915C68.7165 66.3699 68.9557 66.1425 69.0925 65.854L71.8762 59.9796C72.149 59.4036 71.9582 58.7144 71.4276 58.361ZM12.1173 2.91956L12.9478 4.16437C12.9599 4.18504 12.9729 4.20543 12.9864 4.22568L22.7584 18.8837L20.2409 22.4242L8.57594 4.59651L12.1173 2.91956ZM54.8946 69.2852L49.5896 66.164C49.4312 66.0717 49.2727 65.9767 49.1113 65.8799C32.7505 56.1237 15.8748 39.248 6.11852 22.887C6.11796 22.8862 6.11754 22.8852 6.11684 22.8843C6.0222 22.7263 5.92854 22.5696 5.83334 22.4058L2.71484 17.1052L6.95412 6.80896L18.6421 24.6724L16.4235 27.7926C16.1345 28.1992 16.107 28.7366 16.3533 29.1704C18.9937 33.823 23.1407 39.0781 28.0302 43.9679C32.9213 48.8587 38.1767 53.006 42.8282 55.6451C43.2622 55.8915 43.7996 55.8639 44.2063 55.5748L47.3265 53.3569L65.1899 65.0446L54.8946 69.2852ZM67.4022 63.4229L49.5748 51.7587L53.1159 49.2416L69.0797 59.883L67.4022 63.4229Z" fill="#63676B"/>
    </g>
    <defs>
        <clipPath id="clip0_49_3100">
            <rect width="72" height="72" fill="white"/>
        </clipPath>
    </defs>
</svg>
