<svg width="72" height="72" viewBox="0 0 72 72" fill="none" xmlns="http://www.w3.org/2000/svg">
    <g clip-path="url(#clip0_49_3145)">
        <path d="M24.2703 22.1396H30.057V26.1555H27.8942C27.2529 26.1555 26.7331 26.6752 26.7331 27.3166C26.7331 27.958 27.2529 28.4778 27.8942 28.4778H44.1052C44.7466 28.4778 45.2664 27.958 45.2664 27.3166C45.2664 26.6752 44.7466 26.1555 44.1052 26.1555H41.9424V22.1396H47.7291C50.0093 22.1396 51.8642 20.2847 51.8642 18.0045V4.13947C51.8642 1.85929 50.0093 0.00439453 47.7291 0.00439453H24.2703C21.9901 0.00439453 20.1353 1.85929 20.1353 4.13947V18.0045C20.1353 20.2847 21.9903 22.1396 24.2703 22.1396ZM39.6202 26.1555H32.3793V22.1396H39.6202V26.1555ZM22.4575 4.13947C22.4575 3.13996 23.2707 2.32669 24.2703 2.32669H47.7292C48.7288 2.32669 49.542 3.13996 49.542 4.13947V18.0045C49.542 19.004 48.7288 19.8173 47.7292 19.8173H24.2703C23.2707 19.8173 22.4575 19.004 22.4575 18.0045V4.13947Z" fill="#3C92CA"/>
        <path d="M27.594 43.522H4.13508C1.8549 43.522 0 45.377 0 47.6571V61.5221C0 63.8023 1.8549 65.6572 4.13508 65.6572H9.92178V69.673H7.75895C7.11768 69.673 6.5978 70.1928 6.5978 70.8342C6.5978 71.4756 7.11768 71.9953 7.75895 71.9953H23.9698C24.6111 71.9953 25.131 71.4756 25.131 70.8342C25.131 70.1928 24.6111 69.673 23.9698 69.673H21.8071V65.6572H27.5938C29.874 65.6572 31.7289 63.8023 31.7289 61.5221V47.6571C31.7291 45.377 29.874 43.522 27.594 43.522ZM19.485 69.673H12.2441V65.6572H19.485V69.673ZM29.4068 61.5221C29.4068 62.5216 28.5937 63.3349 27.594 63.3349H4.13508C3.13541 63.3349 2.3223 62.5216 2.3223 61.5221V47.6571C2.3223 46.6575 3.13541 45.8443 4.13508 45.8443H27.594C28.5937 45.8443 29.4068 46.6575 29.4068 47.6571V61.5221Z" fill="#63676B"/>
        <path d="M67.8651 43.522H44.4061C42.1259 43.522 40.271 45.3769 40.271 47.6571V61.5221C40.271 63.8023 42.1259 65.6572 44.4061 65.6572H50.1928V69.673H48.0301C47.3887 69.673 46.8689 70.1928 46.8689 70.8342C46.8689 71.4756 47.3887 71.9953 48.0301 71.9953H64.241C64.8824 71.9953 65.4021 71.4756 65.4021 70.8342C65.4021 70.1928 64.8824 69.673 64.241 69.673H62.0783V65.6572H67.865C70.1452 65.6572 72.0001 63.8023 72.0001 61.5221V47.6571C72.0002 45.377 70.1452 43.522 67.8651 43.522ZM59.7561 69.673H52.5151V65.6572H59.7561V69.673ZM69.6779 61.5221C69.6779 62.5216 68.8646 63.3349 67.8651 63.3349H44.4061C43.4066 63.3349 42.5933 62.5216 42.5933 61.5221V47.6571C42.5933 46.6575 43.4066 45.8443 44.4061 45.8443H67.865C68.8645 45.8443 69.6778 46.6575 69.6778 47.6571V61.5221H69.6779Z" fill="#63676B"/>
        <path d="M54.9745 40.0388C54.9745 40.6802 55.4943 41.1999 56.1357 41.1999C56.7771 41.1999 57.2968 40.6802 57.2968 40.0388V36C57.2968 35.3586 56.7771 34.8388 56.1357 34.8388H37.1613V31.9612C37.1613 31.3198 36.6416 30.8 36.0002 30.8C35.3589 30.8 34.839 31.3198 34.839 31.9612V34.8388H15.8648C15.2235 34.8388 14.7036 35.3586 14.7036 36V40.0388C14.7036 40.6802 15.2235 41.1999 15.8648 41.1999C16.506 41.1999 17.0259 40.6802 17.0259 40.0388V37.1611H54.9745V40.0388Z" fill="#63676B"/>
    </g>
    <defs>
        <clipPath id="clip0_49_3145">
            <rect width="72" height="72" fill="white"/>
        </clipPath>
    </defs>
</svg>
