<svg width="61" height="64" viewBox="0 0 61 64" fill="none" xmlns="http://www.w3.org/2000/svg">
    <path d="M1.27836 63.5435H59.6568C60.367 63.5435 60.9352 62.9754 60.9352 62.2652V17.2772C60.9352 17.1998 60.9222 17.1223 60.9093 17.0448C60.9093 17.019 60.8964 16.9931 60.8835 16.9673C60.8706 16.9157 60.8577 16.8769 60.8448 16.8253C60.8319 16.7995 60.8189 16.7607 60.806 16.7349C60.7802 16.6962 60.7673 16.6574 60.7415 16.6187C60.7285 16.5929 60.7027 16.567 60.6898 16.5412C60.6769 16.5283 60.6769 16.5154 60.664 16.5025L48.0483 0.490684C47.8029 0.180778 47.4414 0 47.0411 0H13.8941C13.5067 0 13.1322 0.180778 12.8869 0.490684L0.271167 16.5025C0.258254 16.5154 0.258254 16.5283 0.245342 16.5412C0.232429 16.567 0.206604 16.5929 0.193691 16.6187C0.167865 16.6574 0.14204 16.6962 0.129127 16.7349C0.116215 16.7607 0.103302 16.7865 0.0903891 16.8253C0.0774763 16.8769 0.0645636 16.9157 0.0516509 16.9673C0.0387381 16.9931 0.0387382 17.019 0.0258254 17.0448C0.0129127 17.1223 0 17.1998 0 17.2772V62.2652C0 62.9754 0.581073 63.5435 1.27836 63.5435ZM31.7524 2.54381H46.4213L57.0226 15.9989H31.7524V2.54381ZM14.5268 2.54381H29.1957V15.9989H3.91256L14.5268 2.54381ZM2.55672 18.5556H58.3784V60.9868H2.55672V18.5556Z" fill="#63676B"/>
    <path d="M49.5719 30.4869H11.376C10.6658 30.4869 10.0977 31.0551 10.0977 31.7653C10.0977 32.4755 10.6658 33.0436 11.376 33.0436H49.5719C50.2821 33.0436 50.8502 32.4755 50.8502 31.7653C50.8502 31.0551 50.2821 30.4869 49.5719 30.4869Z" fill="#3C92CA"/>
    <path d="M42.3153 39.2418H18.6333C17.9231 39.2418 17.355 39.8099 17.355 40.5201C17.355 41.2303 17.9231 41.7985 18.6333 41.7985H42.3153C43.0255 41.7985 43.5936 41.2303 43.5936 40.5201C43.5936 39.8099 43.0255 39.2418 42.3153 39.2418Z" fill="#3C92CA"/>
    <path d="M42.3153 47.9966H18.6333C17.9231 47.9966 17.355 48.5647 17.355 49.2749C17.355 49.9851 17.9231 50.5533 18.6333 50.5533H42.3153C43.0255 50.5533 43.5936 49.9851 43.5936 49.2749C43.5936 48.5777 43.0255 47.9966 42.3153 47.9966Z" fill="#3C92CA"/>
</svg>
