<svg width="68" height="67" viewBox="0 0 68 67" fill="none" xmlns="http://www.w3.org/2000/svg">
    <path d="M8.99288 52.8497H13.6V64.997C13.6 65.5504 13.932 66.0347 14.4301 66.256C14.61 66.3252 14.7898 66.3667 14.9697 66.3667C15.3156 66.3667 15.6614 66.2283 15.9243 65.9793L29.635 52.8497H55.3408C58.9933 52.8497 62.3552 50.5531 63.7111 47.1358C63.9878 46.4302 63.6419 45.6416 62.9363 45.3649C62.2307 45.0882 61.4421 45.434 61.1654 46.1396C60.2246 48.5193 57.8865 50.1103 55.3408 50.1103H29.0816C28.7219 50.1103 28.3898 50.2487 28.1408 50.4977L16.3532 61.7872V51.4939C16.3532 50.7329 15.7445 50.1242 14.9835 50.1242H8.99288C5.54791 50.1242 2.73937 47.3156 2.73937 43.8707V15.5777C2.73937 12.1327 5.54791 9.32418 8.99288 9.32418H37.4104C38.1713 9.32418 38.7801 8.71543 38.7801 7.95449C38.7801 7.19356 38.1713 6.58481 37.4104 6.58481H8.99288C4.02604 6.58481 0 10.6247 0 15.5777V43.8568C0 48.8237 4.02604 52.8497 8.99288 52.8497Z" fill="#63676B"/>
    <path d="M35.3903 17.0581C34.8922 16.4078 34.1174 15.9789 33.232 15.9789H26.7018C25.2076 15.9789 24.0039 17.1964 24.0039 18.6768V38.6133C24.0039 40.1075 25.2214 41.3112 26.7018 41.3112H33.232C33.9376 41.3112 34.574 41.0345 35.0582 40.5917C36.2066 41.7262 37.7838 42.4456 39.527 42.4456H58.0385C62.2997 42.4456 65.0114 40.2043 65.4957 36.3167L67.986 20.503C67.9998 20.4338 67.9998 20.3647 67.9998 20.2955C67.9998 16.809 65.1636 13.9728 61.6772 13.9728H52.6151V7.51177C52.6151 4.56487 51.7435 2.43425 50.0279 1.17525C47.3162 -0.817023 43.6084 0.317463 43.4424 0.358969C42.8751 0.538826 42.4877 1.06456 42.4877 1.65948V9.22733C42.4877 14.9689 35.7777 16.9335 35.501 17.0165C35.4456 17.0304 35.4179 17.0442 35.3903 17.0581ZM33.1905 38.5856H26.7294V18.7183H33.1905V38.5856ZM35.9298 19.7006C36.0267 19.7006 36.1235 19.6867 36.2204 19.6591C36.5939 19.5622 45.2133 17.0581 45.2133 9.22733V2.78013C46.0987 2.66945 47.4269 2.66945 48.3954 3.38888C49.3638 4.10831 49.8619 5.49183 49.8619 7.51177V15.3287C49.8619 16.0896 50.4706 16.6983 51.2316 16.6983H61.6633C63.6141 16.6983 65.1913 18.2479 65.2466 20.1848L62.7701 35.9154C62.7701 35.9293 62.7701 35.9431 62.7701 35.9569C62.4658 38.4473 60.8747 39.7063 58.0247 39.7063H39.527C37.5486 39.7063 35.9437 38.1014 35.9437 36.123V19.7006H35.9298Z" fill="#3C92CA"/>
</svg>
