<svg width="72" height="72" viewBox="0 0 72 72" fill="none" xmlns="http://www.w3.org/2000/svg">
    <path d="M45.4946 64.4835H26.5056C24.7576 64.4835 23.3408 63.0665 23.3408 61.3187V42.3297C23.3408 40.5817 24.7578 39.1648 26.5056 39.1648H45.4946C47.2426 39.1648 48.6594 40.5817 48.6594 42.3297V61.3187C48.6594 63.0667 47.2424 64.4835 45.4946 64.4835Z" fill="#F8F8F9"/>
    <path d="M17.0106 43.5165C17.6662 43.5165 18.1975 42.9851 18.1975 42.3297C18.1975 37.7487 21.9243 34.022 26.5052 34.022H29.4132C31.9713 34.022 34.2337 32.3914 35.0428 29.9644L40.0198 15.033H48.659H53.4062C54.0618 15.033 54.5931 14.5015 54.5931 13.8461V1.18688C54.5931 0.531422 54.0618 0 53.4062 0H23.3403C23.0256 0 22.7238 0.125016 22.501 0.347625L20.9186 1.93008C20.6961 2.15255 20.5711 2.45447 20.5711 2.76919V5.01834C19.6372 5.46398 18.9886 6.41461 18.9886 7.51655C18.9886 8.61849 19.6371 9.56925 20.5711 10.0148V12.2639C20.5711 12.5786 20.6961 12.8805 20.9186 13.103L22.501 14.6855C22.7238 14.9081 23.0256 15.0331 23.3403 15.0331H25.2577C24.9743 18.2112 23.7849 22.9985 23.7713 23.0529C23.6827 23.4076 23.7623 23.7831 23.9873 24.0712C24.2122 24.3592 24.5572 24.5275 24.9226 24.5275H29.6698C30.1194 24.5275 30.5303 24.2736 30.7312 23.8715C31.0311 23.2718 33.404 18.4473 33.9208 15.0331H37.5178L32.791 29.2139C32.3054 30.67 30.9479 31.6484 29.413 31.6484H26.505C20.6152 31.6484 15.8237 36.4399 15.8237 42.3297C15.8237 42.9851 16.355 43.5165 17.0106 43.5165ZM22.9447 11.7723V3.26067L23.8318 2.37361H52.2194V12.6593H23.8318L22.9447 11.7723ZM28.9263 22.1538H26.4219C26.8244 20.3743 27.4531 17.3424 27.6386 15.033H31.5166C31.0939 17.2572 29.7428 20.4242 28.9263 22.1538Z" fill="#63676B"/>
    <path d="M55.1402 29.5365L51.3674 18.2183C51.16 17.5964 50.4879 17.26 49.8662 17.4676C49.2444 17.6749 48.9084 18.3471 49.1157 18.9688L52.8885 30.2871C53.4948 32.1057 53.802 33.9996 53.802 35.9166V66.0659C53.802 68.0292 52.2047 69.6264 50.2416 69.6264H21.758C19.7948 69.6264 18.1975 68.0293 18.1975 66.0659V47.0769C18.1975 46.4214 17.6662 45.89 17.0106 45.89C16.355 45.89 15.8237 46.4214 15.8237 47.0769V66.0659C15.8237 69.338 18.4856 72 21.7578 72H50.2413C53.5133 72 56.1754 69.3381 56.1754 66.0659V35.9166C56.1756 33.7441 55.8273 31.5975 55.1402 29.5365Z" fill="#63676B"/>
    <path d="M26.5054 37.978C24.106 37.978 22.1538 39.93 22.1538 42.3297V61.3187C22.1538 63.7183 24.1061 65.6703 26.5054 65.6703H45.4945C47.894 65.6703 49.8461 63.7183 49.8461 61.3187V42.3297C49.8461 39.93 47.8938 37.978 45.4945 37.978H26.5054ZM47.4724 42.3297V61.3187C47.4724 62.4095 46.5852 63.2967 45.4943 63.2967H26.5054C25.4146 63.2967 24.5274 62.4095 24.5274 61.3187V42.3297C24.5274 41.2388 25.4146 40.3516 26.5054 40.3516H45.4945C46.5852 40.3516 47.4724 41.2388 47.4724 42.3297Z" fill="#3C92CA"/>
</svg>
