<svg width="84" height="84" viewBox="0 0 84 84" fill="none" xmlns="http://www.w3.org/2000/svg">
    <path d="M20.8113 49.9714C26.177 55.5086 33.6856 58.9714 41.9999 58.9714C58.2513 58.9714 71.4856 45.7371 71.4856 29.4857C71.4856 13.2343 58.2513 0 41.9999 0C25.7484 0 12.5142 13.2343 12.5142 29.4857C12.5142 37.2343 15.5313 44.2971 20.4342 49.56C20.537 49.7314 20.6742 49.8514 20.8113 49.9714ZM41.9999 55.5771C35.5884 55.5771 29.6913 53.2457 25.1484 49.3886C32.7942 46.8514 35.6227 43.7657 36.6684 41.7086C38.1256 42.3429 39.7542 42.6857 41.5542 42.7029C41.5884 42.7029 41.6399 42.7029 41.6742 42.7029C41.6913 42.7029 41.7942 42.7029 41.8284 42.7029C41.8627 42.7029 41.9142 42.7029 41.9484 42.7029C43.9027 42.6686 45.6684 42.2743 47.1942 41.5371C48.1713 43.5943 50.9484 46.7829 58.817 49.3886C54.2913 53.2457 48.4113 55.5771 41.9999 55.5771ZM32.4684 24.0343C32.4684 24 32.4684 23.9657 32.4684 23.9314C32.8799 15 39.4627 14.2971 41.4856 14.2971C41.5713 14.2971 41.6399 14.2971 41.6913 14.2971C41.7427 14.2971 41.777 14.2971 41.8284 14.2971C41.8799 14.2971 41.9313 14.2971 42.0342 14.2971C44.0399 14.2971 50.6399 15 51.0513 23.9314C51.0513 23.9657 51.0513 24 51.0513 24.0343C51.0684 24.12 51.9084 32.3829 48.0513 36.72C46.5256 38.4343 44.4856 39.2914 41.8284 39.3086C41.8113 39.3086 41.777 39.3086 41.777 39.3086C41.7599 39.3086 41.7427 39.3086 41.7256 39.3086C39.0513 39.2743 37.0284 38.4343 35.5027 36.72C31.6284 32.4171 32.4513 24.12 32.4684 24.0343ZM41.9999 3.39429C56.3827 3.39429 68.0913 15.1029 68.0913 29.4857C68.0913 36.0686 65.6227 42.1029 61.5942 46.6971C50.5199 43.4743 50.0913 39.5657 50.0913 39.5143C50.0913 39.5829 50.0913 39.6 50.0913 39.6H49.9713C50.177 39.3943 50.3827 39.1886 50.5884 38.9657C55.3027 33.6686 54.5142 24.6 54.4284 23.7086C53.9656 14.2457 47.4684 10.8857 42.0342 10.8857C41.9313 10.8857 41.8284 10.8857 41.7599 10.8857C41.6913 10.8857 41.6056 10.8857 41.4856 10.8857C36.0513 10.8857 29.537 14.2457 29.0913 23.7086C29.0056 24.5829 28.2342 33.6514 32.9313 38.9657C33.2056 39.2743 33.497 39.5657 33.7884 39.84C33.4284 40.8343 31.6113 43.9886 22.4056 46.68C18.3599 42.0857 15.9084 36.0686 15.9084 29.4857C15.9084 15.1029 27.617 3.39429 41.9999 3.39429Z" fill="#63676B"/>
    <path d="M20.4686 72.0857H63.5143C64.4572 72.0857 65.2115 71.3314 65.2115 70.3886C65.2115 69.4457 64.4572 68.6914 63.5143 68.6914H20.4686C19.5258 68.6914 18.7715 69.4457 18.7715 70.3886C18.7715 71.3143 19.5429 72.0857 20.4686 72.0857Z" fill="#5895D1"/>
    <path d="M57.6515 82.3029C57.6515 81.36 56.8972 80.6057 55.9543 80.6057H28.0458C27.1029 80.6057 26.3486 81.36 26.3486 82.3029C26.3486 83.2457 27.1029 84 28.0458 84H55.9715C56.8972 84 57.6515 83.2286 57.6515 82.3029Z" fill="#5895D1"/>
</svg>
