<svg width="72" height="72" viewBox="0 0 72 72" fill="none" xmlns="http://www.w3.org/2000/svg">
    <g clip-path="url(#clip0_46_655)">
        <path d="M23.2217 26.5263C22.2963 27.2901 21.7676 28.421 21.7676 29.6108V33.2093C21.7676 34.0171 22.4138 34.6634 23.2217 34.6634C24.0295 34.6634 24.6758 34.0171 24.6758 33.2093V29.6108C24.6758 29.2876 24.8227 28.9792 25.0724 28.7736C28.2156 26.2032 31.6085 24.4847 32.2694 24.1616C32.8422 23.8825 33.2241 23.2803 33.2241 22.6487V17.5814C33.2241 17.0967 32.9744 16.6414 32.5779 16.377C32.3282 16.2007 32.1666 15.9217 32.1666 15.6132V10.355C32.1666 8.54834 33.6354 7.07956 35.442 7.07956H36.573C38.3796 7.07956 39.8484 8.54834 39.8484 10.355V15.6132C39.8484 15.9217 39.7015 16.2007 39.4371 16.377C39.0258 16.6414 38.7908 17.0967 38.7908 17.5814V22.6487C38.7908 23.295 39.158 23.8825 39.7309 24.1616C40.3771 24.4847 43.7847 26.2032 46.9279 28.7736C47.1776 28.9792 47.3245 29.2876 47.3245 29.6108V33.2093C47.3245 34.0171 47.9708 34.6634 48.7786 34.6634C49.5864 34.6634 50.2327 34.0171 50.2327 33.2093V29.6108C50.2327 28.4064 49.7039 27.2754 48.7786 26.5263C46.0173 24.2644 43.0797 22.6193 41.699 21.8996V18.2423C42.3747 17.5373 42.7566 16.5973 42.7566 15.5985V10.355C42.7566 6.94737 39.9806 4.17136 36.573 4.17136H35.442C32.0344 4.17136 29.2584 6.94737 29.2584 10.355V15.6132C29.2584 16.612 29.6403 17.552 30.3159 18.257V21.8996C28.9206 22.6193 25.983 24.2644 23.2217 26.5263Z" fill="#63676B"/>
        <path d="M70.5461 67.8286C71.354 67.8286 72.0002 67.1824 72.0002 66.3745V62.776C72.0002 61.5716 71.4715 60.4406 70.5461 59.6915C67.7848 57.4296 64.8472 55.7846 63.4666 55.0649V51.4076C64.1422 50.7026 64.5241 49.7625 64.5241 48.7638V43.5055C64.5241 40.0979 61.7481 37.3219 58.3405 37.3219H57.2095C53.8019 37.3219 51.0259 40.0979 51.0259 43.5055V48.7638C51.0259 49.7625 51.4078 50.7026 52.0835 51.4076V55.0649C50.7028 55.7846 47.7652 57.4296 45.0039 59.6915C44.0786 60.4553 43.5498 61.5716 43.5498 62.776V66.3745C43.5498 67.1824 44.1961 67.8286 45.0039 67.8286C45.8117 67.8286 46.458 67.1824 46.458 66.3745V62.776C46.458 62.4529 46.6049 62.1444 46.8546 61.9388C49.9978 59.3537 53.3907 57.6352 54.0516 57.3268C54.6245 57.0477 54.9917 56.4455 54.9917 55.8139V50.7466C54.9917 50.2619 54.742 49.8066 54.3454 49.5422C54.0957 49.366 53.9341 49.0869 53.9341 48.7784V43.5202C53.9341 41.7136 55.4029 40.2448 57.2095 40.2448H58.3405C60.1471 40.2448 61.6159 41.7136 61.6159 43.5202V48.7784C61.6159 49.0869 61.469 49.366 61.2046 49.5422C60.7934 49.8066 60.5584 50.2619 60.5584 50.7466V55.8139C60.5584 56.4602 60.9256 57.0477 61.4984 57.3268C62.1447 57.6499 65.5523 59.3684 68.6955 61.9388C68.9452 62.1444 69.092 62.4529 69.092 62.776V66.3745C69.092 67.1824 69.753 67.8286 70.5461 67.8286Z" fill="#63676B"/>
        <path d="M26.9963 59.6915C24.235 57.4296 21.2974 55.7846 19.9168 55.0649V51.4076C20.5924 50.7026 20.9743 49.7625 20.9743 48.7638V43.5055C20.9743 40.0979 18.1983 37.3219 14.7907 37.3219H13.6597C10.2521 37.3219 7.47613 40.0979 7.47613 43.5055V48.7638C7.47613 49.7625 7.85802 50.7026 8.53366 51.4076V55.0649C7.153 55.7846 4.21542 57.4296 1.4541 59.6915C0.528764 60.4553 0 61.5716 0 62.776V66.3745C0 67.1824 0.646267 67.8286 1.4541 67.8286C2.26193 67.8286 2.9082 67.1824 2.9082 66.3745V62.776C2.9082 62.4529 3.05508 62.1444 3.30477 61.9388C6.44798 59.3537 9.84088 57.6352 10.5018 57.3268C11.0747 57.0477 11.4419 56.4455 11.4419 55.8139V50.7466C11.4419 50.2619 11.1922 49.8066 10.7956 49.5422C10.5459 49.366 10.3843 49.0869 10.3843 48.7784V43.5202C10.3843 41.7136 11.8531 40.2448 13.6597 40.2448H14.7907C16.5973 40.2448 18.0661 41.7136 18.0661 43.5202V48.7784C18.0661 49.0869 17.9192 49.366 17.6548 49.5422C17.2436 49.8066 17.0086 50.2619 17.0086 50.7466V55.8139C17.0086 56.4602 17.3758 57.0477 17.9486 57.3268C18.5949 57.6499 22.0024 59.3537 25.1457 61.9388C25.3953 62.1444 25.5422 62.4529 25.5422 62.776V66.3745C25.5422 67.1824 26.1885 67.8286 26.9963 67.8286C27.8042 67.8286 28.4504 67.1824 28.4504 66.3745V62.776C28.4504 61.5716 27.9217 60.4406 26.9963 59.6915Z" fill="#63676B"/>
        <path d="M44.2692 51.011C44.5042 51.1432 44.7539 51.2019 44.9889 51.2019C45.4883 51.2019 45.9877 50.9376 46.2521 50.4675C46.6487 49.7772 46.4137 48.8813 45.7233 48.4847L37.5716 43.7846V34.3696C37.5716 33.5618 36.9253 32.9155 36.1175 32.9155C35.3096 32.9155 34.6634 33.5618 34.6634 34.3696V43.7846L26.5116 48.4994C25.8213 48.8959 25.5716 49.7919 25.9828 50.4822C26.2472 50.9522 26.7466 51.2166 27.246 51.2166C27.4957 51.2166 27.7454 51.1579 27.9657 51.0257L36.1175 46.3109L44.2692 51.011Z" fill="#3C92CA"/>
    </g>
    <defs>
        <clipPath id="clip0_46_655">
            <rect width="72" height="72" fill="white"/>
        </clipPath>
    </defs>
</svg>
