<svg width="68" height="68" viewBox="0 0 68 68" fill="none" xmlns="http://www.w3.org/2000/svg">
    <path d="M64.065 27.9815L61.2474 26.0315L58.4072 13.6493C57.5644 9.97507 54.3431 7.40904 50.5734 7.40904H17.4266C13.6569 7.40904 10.4356 9.97507 9.59279 13.6493L6.75255 26.0315L3.93495 27.9815C1.47099 29.6868 0 32.4939 0 35.4903V48.2705C0 50.3463 1.61917 52.0501 3.66073 52.188V57.7282C3.66073 59.3068 4.94491 60.591 6.52345 60.591H12.7083C14.2868 60.591 15.571 59.3068 15.571 57.7282V52.1979H24.5238C24.7409 54.6794 26.8289 56.6329 29.3658 56.6329H41.1187C43.6556 56.6329 45.7437 54.6796 45.9609 52.1979H52.429V57.7282C52.429 59.3068 53.7132 60.591 55.2917 60.591H61.4765C63.0551 60.591 64.3393 59.3068 64.3393 57.7282V52.188C66.3808 52.0503 68 50.3463 68 48.2705V35.4903C68.0002 32.4939 66.5292 29.6868 64.065 27.9815ZM2.49743 35.4903C2.49743 33.3132 3.56616 31.2738 5.35632 30.0349L8.57201 27.8094C8.82825 27.6321 9.00889 27.3653 9.07849 27.0618L12.027 14.2075C12.608 11.6752 14.8284 9.90647 17.4266 9.90647H50.5734C53.1716 9.90647 55.392 11.6752 55.973 14.2077L58.9215 27.062C58.9911 27.3657 59.1717 27.6324 59.428 27.8095L62.6437 30.0351C64.4338 31.274 65.5026 33.3134 65.5026 35.4905V44.1464H2.49743V35.4903ZM13.0737 57.7284C13.0735 57.9299 12.9097 58.0937 12.7083 58.0937H6.52345C6.32199 58.0937 6.15816 57.9299 6.15816 57.7284V52.1979H13.0737V57.7284ZM41.1188 54.1356H29.3659C28.2081 54.1356 27.244 53.2985 27.0422 52.1981H43.4429C43.241 53.2985 42.2766 54.1356 41.1188 54.1356ZM61.8422 57.7284C61.8422 57.9297 61.6782 58.0937 61.4767 58.0937H55.2919C55.0905 58.0937 54.9266 57.9299 54.9266 57.7284V52.1981H61.8422V57.7284ZM65.5027 48.2706C65.5027 49.0592 64.8612 49.7007 64.0727 49.7007H3.92746C3.13894 49.7007 2.49743 49.0592 2.49743 48.2706V46.6438H65.5027V48.2706Z" fill="#63676B"/>
    <path d="M11.6195 28.0306H56.3801C56.7604 28.0306 57.1198 27.8573 57.3568 27.56C57.5937 27.2626 57.6822 26.8733 57.5972 26.5027L54.8365 14.4684C54.3773 12.4685 52.624 11.0716 50.5726 11.0716H17.4267C15.3753 11.0716 13.6219 12.4685 13.1627 14.4686L10.4023 26.5029C10.3172 26.8735 10.4057 27.2626 10.6427 27.5601C10.8796 27.8577 11.2392 28.0306 11.6195 28.0306ZM15.5971 15.0272C15.7942 14.1687 16.5466 13.569 17.4269 13.569H50.5727C51.453 13.569 52.2054 14.1687 52.4025 15.027L54.8125 25.5334H13.1871L15.5971 15.0272Z" fill="#3C92CA"/>
    <path d="M16.7375 35.1726H6.47674C5.78712 35.1726 5.22803 35.7317 5.22803 36.4213C5.22803 39.9387 8.08975 42.8004 11.6071 42.8004C15.1245 42.8004 17.9862 39.9387 17.9862 36.4213C17.9862 35.7319 17.4271 35.1726 16.7375 35.1726ZM11.6071 40.3032C9.90338 40.3032 8.45254 39.2 7.93141 37.6702H15.2828C14.7619 39.2 13.3109 40.3032 11.6071 40.3032Z" fill="#3C92CA"/>
    <path d="M61.5236 35.1726H51.2629C50.5733 35.1726 50.0142 35.7316 50.0142 36.4213C50.0142 39.9387 52.8759 42.8004 56.3933 42.8004C59.9106 42.8004 62.7724 39.9387 62.7724 36.4213C62.7724 35.7319 62.2133 35.1726 61.5236 35.1726ZM56.3933 40.3032C54.6895 40.3032 53.2387 39.2 52.7175 37.6702H60.069C59.548 39.2 58.097 40.3032 56.3933 40.3032Z" fill="#3C92CA"/>
    <path d="M46.7891 39.8621C46.8573 39.9073 46.7225 39.8172 46.7891 39.8621V39.8621Z" fill="#63676B"/>
    <path d="M46.7891 39.8621C45.8488 39.228 44.5932 40.146 44.8934 41.2316C45.0295 41.7235 45.4592 42.0875 45.967 42.141C46.5196 42.1992 47.0572 41.8704 47.259 41.3538C47.4691 40.816 47.2725 40.1808 46.7891 39.8621Z" fill="#63676B"/>
    <path d="M42.781 39.651H21.904C21.2144 39.651 20.6553 40.2101 20.6553 40.8997C20.6553 41.5894 21.2144 42.1484 21.904 42.1484H42.781C43.4706 42.1484 44.0297 41.5894 44.0297 40.8997C44.0297 40.2103 43.4706 39.651 42.781 39.651Z" fill="#63676B"/>
    <path d="M22.7872 37.3049C23.475 36.5968 23.1036 35.3689 22.1224 35.1926C21.1757 35.0223 20.3739 36.0053 20.751 36.8987C21.0878 37.7142 22.1617 37.9123 22.7872 37.3049Z" fill="#63676B"/>
    <path d="M20.7508 36.8987C20.7192 36.8236 20.7825 36.9749 20.7508 36.8987V36.8987Z" fill="#63676B"/>
    <path d="M46.0964 35.1726H25.2194C24.5298 35.1726 23.9707 35.7317 23.9707 36.4213C23.9707 37.111 24.5298 37.6701 25.2194 37.6701H46.0964C46.7861 37.6701 47.3451 37.111 47.3451 36.4213C47.3451 35.7319 46.7861 35.1726 46.0964 35.1726Z" fill="#63676B"/>
</svg>
