<svg xmlns="http://www.w3.org/2000/svg" display="none">

    <symbol id="filter" viewBox="0 0 23 19">
        <path d="M21.5696 0H1.43036C0.641664 0 0 0.641619 0 1.43031V3.11362C0 3.90232 0.641664 4.54398 1.43036 4.54398H2.10001L9.49222 11.9362V18.4075C9.49222 18.6003 9.60838 18.7742 9.78654 18.848C9.84553 18.8724 9.90747 18.8843 9.96888 18.8843C10.093 18.8843 10.215 18.8358 10.3062 18.7446L13.386 15.6648C13.4753 15.5753 13.5256 15.4541 13.5256 15.3276V11.9361L20.9177 4.54398H21.5697C22.3584 4.54398 23 3.90232 23 3.11362V1.43031C23 0.641619 22.3583 0 21.5696 0ZM12.7115 11.4017C12.6173 11.4958 12.5709 11.6195 12.572 11.7429V15.1302L10.4458 17.2565V11.7402C10.4461 11.6177 10.3996 11.4951 10.3062 11.4016L3.44856 4.54398H19.5691L12.7115 11.4017ZM22.0464 3.11362C22.0464 3.37651 21.8326 3.59043 21.5696 3.59043H1.43036C1.16747 3.59043 0.953556 3.37655 0.953556 3.11362V1.43031C0.953556 1.16743 1.16743 0.953512 1.43036 0.953512H21.5697C21.8326 0.953512 22.0465 1.16738 22.0465 1.43031V3.11362H22.0464Z"/>
    </symbol>

    <symbol id="menu-icon1" viewBox="0 0 16 16">
        <g>
            <path d="M8 0C3.58881 0 0 3.58881 0 8C0 12.4112 3.58881 16 8 16C12.4112 16 16 12.4112 16 8C16 3.58881 12.4112 0 8 0ZM8 15.2381C4.00887 15.2381 0.761906 11.9911 0.761906 8C0.761906 4.00887 4.00887 0.761906 8 0.761906C11.9911 0.761906 15.2381 4.00887 15.2381 8C15.2381 11.9911 11.9911 15.2381 8 15.2381Z"/>
            <path d="M7.99999 1.52381C4.42902 1.52381 1.5238 4.42903 1.5238 8C1.5238 11.571 4.42902 14.4762 7.99999 14.4762C11.571 14.4762 14.4762 11.571 14.4762 8C14.4762 4.42903 11.571 1.52381 7.99999 1.52381ZM7.99999 13.7143C4.84915 13.7143 2.28571 11.1508 2.28571 8C2.28571 4.84916 4.84915 2.28572 7.99999 2.28572C11.1508 2.28572 13.7143 4.84916 13.7143 8C13.7143 11.1508 11.1508 13.7143 7.99999 13.7143Z"/>
            <path d="M8.95244 6.66666H7.04769C6.83728 6.66666 6.66675 6.83722 6.66675 7.04759V12.3809C6.66675 12.5913 6.83731 12.7619 7.04769 12.7619H8.95244C9.16284 12.7619 9.33337 12.5913 9.33337 12.3809V7.04763C9.3334 6.83722 9.16284 6.66666 8.95244 6.66666ZM8.5715 12H7.42865V7.42856H8.5715V12Z"/>
            <path d="M7.99997 3.23809C7.26478 3.23809 6.66663 3.83622 6.66663 4.57144C6.66663 5.30663 7.26475 5.90478 7.99997 5.90478C8.73516 5.90478 9.33331 5.30666 9.33331 4.57144C9.33331 3.83622 8.73516 3.23809 7.99997 3.23809ZM7.99997 5.14284C7.68488 5.14284 7.42853 4.8865 7.42853 4.57141C7.42853 4.25631 7.68488 3.99997 7.99997 3.99997C8.31506 3.99997 8.57141 4.25631 8.57141 4.57141C8.57141 4.8865 8.31506 5.14284 7.99997 5.14284Z"/>
        </g>
    </symbol>

    <symbol id="menu-icon2" viewBox="0 0 14 14">
        <g>
            <path d="M5.79065 6.53753C5.89448 6.48225 5.98269 6.41318 6.05455 6.33032C6.18312 6.18332 6.24798 6.00832 6.24798 5.81115C6.24798 5.67793 6.21719 5.55611 6.15769 5.45065C6.0989 5.34704 6.01815 5.26072 5.91712 5.19258C5.82284 5.12911 5.71201 5.08058 5.58905 5.04861C5.47215 5.01829 5.34287 5.00287 5.20684 5.00287H4.44873V7.59683H5.10905V6.70578L5.83098 7.59689H6.66702L5.79065 6.53753ZM5.56105 5.93086C5.54122 5.96446 5.51322 5.99129 5.47494 6.01461C5.43248 6.04051 5.37927 6.06104 5.31627 6.07504C5.25141 6.08904 5.18234 6.09651 5.10905 6.0979V5.60208H5.20331C5.26352 5.60208 5.32302 5.60815 5.37831 5.6198C5.42684 5.6303 5.47002 5.6464 5.50548 5.66762C5.53138 5.68255 5.55191 5.70287 5.56709 5.72783C5.58084 5.75047 5.58762 5.7808 5.58762 5.81812C5.58765 5.86507 5.57877 5.90146 5.56105 5.93086Z"/>
            <path d="M7.4074 6.99418V6.57579H8.3069V5.97333H7.4074V5.60561H8.34726V5.0029H6.74683V7.59686H8.35754V6.99418H7.4074Z"/>
            <path d="M10.13 5.0029V6.39311L9.13879 5.0029H8.5769V7.59686H9.22372V6.20668L10.2149 7.59686H10.7768V5.0029H10.13Z"/>
            <path d="M10.9659 5.0029V5.60561H11.6265V7.59686H12.2868V5.60561H12.9472V5.0029H10.9659Z"/>
            <path d="M14 1.75V1.05H1.75V0H1.05V1.05H0V1.75H1.05V13.3H0.35C0.15657 13.3 0 13.4566 0 13.65C0 13.8434 0.15657 14 0.35 14H2.45C2.64343 14 2.8 13.8434 2.8 13.65C2.8 13.4566 2.64343 13.3 2.45 13.3H1.75V1.75H4.19975V2.8H3.5C3.11336 2.8 2.8 3.11336 2.8 3.5V9.1C2.8 9.48664 3.11336 9.8 3.5 9.8H13.3C13.6866 9.8 14 9.48664 14 9.1V3.5C14 3.11336 13.6866 2.8 13.3 2.8H12.6V1.75H14ZM4.89975 1.75H11.9V2.8H4.89975V1.75ZM13.3 3.5V9.1H3.5V3.5H13.3Z"/>
        </g>
    </symbol>


    <symbol id="menu-icon3" viewBox="0 0 12 12">
        <g>
            <path d="M0.489746 0V12H11.5102V0H0.489746ZM10.7755 11.2653H1.22444V0.734695H10.7755V11.2653Z"/>
            <path d="M1.95923 1.46939V4.65307H10.0409V1.46939H1.95923ZM9.30616 3.91838H2.69392V2.20409H9.30616V3.91838Z"/>
            <path d="M1.95923 5.38776V7.59185H4.16331V5.38776H1.95923ZM3.42862 6.85713H2.69392V6.12244H3.42862V6.85713Z"/>
            <path d="M4.89795 5.38776V7.59185H7.10204V5.38776H4.89795ZM6.36732 6.85713H5.63262V6.12244H6.36732V6.85713Z"/>
            <path d="M10.0408 5.38776H7.83667V6.12246H10.0408V5.38776Z"/>
            <path d="M1.95923 8.32652V10.5306H4.16331V8.32652H1.95923ZM3.42862 9.79591H2.69392V9.06122H3.42862V9.79591Z"/>
            <path d="M4.89795 8.32652V10.5306H7.10204V8.32652H4.89795ZM6.36732 9.79591H5.63262V9.06122H6.36732V9.79591Z"/>
            <path d="M7.83667 6.85713V10.5306H10.0408V6.85713H7.83667ZM9.30606 9.79591H8.57136V7.59183H9.30606V9.79591Z"/>
        </g>
    </symbol>

    <symbol id="menu-icon4" viewBox="0 0 13 13">
        <path d="M6.50006 4.55263C5.42627 4.55263 4.55273 5.4262 4.55273 6.49995C4.55273 7.5737 5.42627 8.44727 6.50006 8.44727C7.57385 8.44727 8.44738 7.5737 8.44738 6.49995C8.44738 5.4262 7.5738 4.55263 6.50006 4.55263ZM6.50006 7.72604C5.82401 7.72604 5.27397 7.17604 5.27397 6.49995C5.27397 5.82386 5.82396 5.27386 6.50006 5.27386C7.17615 5.27386 7.72615 5.82386 7.72615 6.49995C7.72615 7.17604 7.17607 7.72604 6.50006 7.72604Z"/>
        <path d="M12.881 7.94185L11.7782 6.94629V6.05361L12.8809 5.05814C12.9942 4.95586 13.0308 4.79338 12.9724 4.65243L12.3831 3.22963C12.3247 3.08872 12.1843 2.99984 12.0316 3.0075L10.5479 3.08326L9.91669 2.45209L9.99245 0.968434C10.0002 0.816044 9.91127 0.67522 9.77032 0.616872L8.34748 0.0274983C8.20657 -0.0309799 8.04404 0.0057964 7.94182 0.118941L6.94621 1.22171H6.05362L5.05811 0.118941C4.95583 0.00575308 4.79335 -0.0308499 4.65244 0.0274983L3.22965 0.616828C3.08865 0.67522 2.99972 0.816044 3.00751 0.96839L3.08332 2.45205L2.4521 3.08322L0.968403 3.00746C0.816533 2.99932 0.675232 3.08864 0.616884 3.22959L0.0274674 4.65238C-0.0309241 4.79338 0.00572218 4.95582 0.118953 5.05809L1.22168 6.05357V6.94625L0.11904 7.9418C0.00580882 8.04408 -0.0308808 8.20656 0.027554 8.34751L0.616884 9.77031C0.675276 9.9113 0.816273 10.0008 0.968403 9.99244L2.4521 9.91668L3.08332 10.5479L3.00751 12.0315C2.99972 12.1839 3.08869 12.3247 3.22965 12.3831L4.65244 12.9724C4.79344 13.031 4.95588 12.9942 5.05811 12.881L6.05371 11.7782H6.9463L7.9419 12.881C8.01177 12.9583 8.10967 12.9999 8.20969 12.9999C8.25608 12.9999 8.30291 12.9909 8.34757 12.9725L9.77036 12.3831C9.91136 12.3247 10.0003 12.1839 9.99249 12.0316L9.91673 10.5479L10.5479 9.91672L12.0316 9.99248C12.1835 10.0002 12.3248 9.91131 12.3831 9.77035L12.9725 8.34756C13.0308 8.20656 12.9942 8.04412 12.881 7.94185ZM11.8142 9.25921L10.4246 9.18821C10.3227 9.18271 10.2233 9.22131 10.1512 9.29339L9.29335 10.1512C9.22119 10.2234 9.18303 10.3227 9.18818 10.4246L9.25913 11.8142L8.30659 12.2088L7.37419 11.1759C7.30583 11.1003 7.20854 11.057 7.10653 11.057H5.89339C5.79138 11.057 5.69409 11.1002 5.62573 11.1759L4.69333 12.2088L3.74079 11.8142L3.81178 10.4246C3.81698 10.3227 3.77873 10.2234 3.70657 10.1512L2.84876 9.29339C2.77663 9.22126 2.67744 9.18293 2.57538 9.18821L1.18581 9.25921L0.791236 8.30666L1.824 7.37426C1.89972 7.30582 1.94295 7.20862 1.94295 7.10661V5.89338C1.94295 5.79137 1.89972 5.69408 1.824 5.62572L0.791236 4.69332L1.18581 3.74078L2.57538 3.81177C2.67735 3.81714 2.77663 3.77872 2.84876 3.7066L3.70657 2.84879C3.77873 2.77662 3.81698 2.67734 3.81178 2.57533L3.74079 1.18576L4.69333 0.79118L5.62573 1.82395C5.69409 1.89962 5.79138 1.9429 5.89339 1.9429H7.10653C7.20854 1.9429 7.30583 1.89967 7.37419 1.82395L8.30659 0.79118L9.25913 1.18576L9.18818 2.57533C9.18298 2.67725 9.22114 2.77654 9.29335 2.84879L10.1512 3.7066C10.2234 3.77872 10.3227 3.81766 10.4246 3.81177L11.8142 3.74078L12.2087 4.69332L11.1759 5.62572C11.1002 5.69416 11.057 5.79137 11.057 5.89338V7.10661C11.057 7.20862 11.1002 7.30591 11.1759 7.37426L12.2087 8.30666L11.8142 9.25921Z"/>
        <path d="M6.50004 3.09097C4.62033 3.09097 3.09106 4.62028 3.09106 6.49995C3.09106 8.37965 4.62033 9.90892 6.50004 9.90892C8.37974 9.90892 9.90901 8.37961 9.90901 6.49995C9.90897 4.62024 8.3797 3.09097 6.50004 3.09097ZM6.50004 9.18769C5.01799 9.18769 3.8123 7.982 3.8123 6.49995C3.8123 5.01789 5.01799 3.8122 6.50004 3.8122C7.98209 3.8122 9.18778 5.01789 9.18778 6.49995C9.18778 7.982 7.98201 9.18769 6.50004 9.18769Z"/>
    </symbol>

    <symbol id="menu-icon5" viewBox="0 0 12 12">
        <g>
            <path d="M5.99998 0C2.69156 0 0 2.6916 0 6.00002C0 9.3084 2.69156 12 5.99998 12C9.3084 12 12 9.30844 12 6.00002C12 2.6916 9.30844 0 5.99998 0ZM5.07444 0.60964C4.58741 1.02659 4.12116 1.54565 3.74657 2.0982C3.57788 2.34706 3.42622 2.60403 3.29154 2.86758H1.5195C2.34076 1.69633 3.60892 0.860518 5.07444 0.60964ZM5.73452 8.65742H3.6331C3.31688 7.97207 3.0985 7.18146 3.06183 6.29341H5.73452V8.65742ZM1.19026 3.3985H3.04714C2.73729 4.15216 2.56195 4.94996 2.53059 5.76252H0.536443C0.573042 4.90986 0.805444 4.1071 1.19026 3.3985ZM0.53885 6.29344H2.53037C2.56092 7.11874 2.73453 7.90925 3.04866 8.65746H1.22147C0.826787 7.95055 0.584226 7.14776 0.53885 6.29344ZM1.55914 9.18834H3.29904C3.43174 9.44138 3.58107 9.68918 3.74753 9.93121C4.18919 10.5734 4.6639 11.051 5.06485 11.3887C3.62687 11.1399 2.37956 10.3277 1.55914 9.18834ZM5.73452 11.2409C5.14152 10.8067 4.44343 10.114 3.90858 9.18834H5.73452V11.2409ZM5.73452 5.76252H3.06183C3.09488 4.93711 3.28265 4.14618 3.62227 3.3985H5.73456V5.76252H5.73452ZM5.73452 2.86758H3.89307C3.98354 2.70823 4.08102 2.55101 4.186 2.39612C4.73257 1.58983 5.33169 1.06184 5.73452 0.762651V2.86758ZM11.4636 5.76252H9.46941C9.43806 4.94996 9.26271 4.15216 8.95286 3.3985H10.8097C11.1945 4.1071 11.427 4.90986 11.4636 5.76252ZM10.4805 2.86758H8.70853C8.57386 2.60403 8.42215 2.34706 8.2535 2.0982C7.87892 1.54562 7.41252 1.0267 6.92545 0.609604C8.39097 0.860483 9.65917 1.6963 10.4805 2.86758ZM6.26544 0.762616C6.66827 1.06181 7.2674 1.58979 7.81397 2.39609C7.91895 2.55097 8.01642 2.7082 8.10689 2.86754H6.26544V0.762616ZM6.26544 3.3985H8.37773C8.71735 4.14618 8.90512 4.93711 8.93818 5.76252H6.26544V3.3985ZM6.26544 6.29344H8.93818C8.90154 7.1815 8.68312 7.97211 8.3669 8.65746H6.26544V6.29344ZM6.26544 9.18834H8.09139C7.55654 10.114 6.85845 10.8067 6.26544 11.2409V9.18834ZM6.93525 11.3887C7.33617 11.0511 7.81085 10.5733 8.25247 9.93124C8.41893 9.68922 8.56826 9.44142 8.70096 9.18838H10.4409C9.62048 10.3277 8.3732 11.1399 6.93525 11.3887ZM10.7785 8.65742H8.95138C9.26551 7.90921 9.43912 7.11874 9.46966 6.29341H11.4612C11.4157 7.14776 11.1732 7.95055 10.7785 8.65742Z"/>
        </g>
    </symbol>

    <symbol id="menu-icon6" viewBox="0 0 12 11">
        <path d="M10.5155 4.73458V0H0V7.80722H5.61687C5.80139 9.39882 7.15734 10.6385 8.79761 10.6385C10.5634 10.6385 12 9.2019 12 7.43609C12 6.30195 11.4073 5.3037 10.5155 4.73458ZM8.79761 4.23372C8.32216 4.23372 7.87066 4.33801 7.46457 4.52469L6.77456 3.90361L9.7732 1.20453V4.38584C9.46545 4.28719 9.13769 4.23372 8.79761 4.23372ZM5.25773 4.27027L1.33821 0.742268H9.17725L5.25773 4.27027ZM3.74088 3.90361L0.742268 6.6027V1.20453L3.74088 3.90361ZM4.29565 4.40296L5.25773 5.26894L6.21981 4.40296L6.80581 4.93042C6.15993 5.44488 5.71678 6.20331 5.61687 7.06496H1.33821L4.29565 4.40296ZM8.79761 9.89621C7.44109 9.89621 6.33751 8.79261 6.33751 7.43609C6.33751 6.07957 7.44111 4.97599 8.79761 4.97599C10.1541 4.97599 11.2577 6.07957 11.2577 7.43609C11.2577 8.79261 10.1541 9.89621 8.79761 9.89621Z"/>
        <path d="M9.11667 5.81285L7.49341 7.43609L9.11667 9.05936L9.64153 8.5345L8.54315 7.43609L9.64153 6.33771L9.11667 5.81285Z"/>
    </symbol>

    <symbol id="menu-icon7" viewBox="0 0 12 12">
        <g>
            <path d="M10.6069 1.97438H9.03839V0.405898C9.03839 0.181737 8.85665 0 8.63253 0H1.39308C1.16892 0 0.987183 0.181737 0.987183 0.405898V10.2778C0.987183 10.502 1.16892 10.6837 1.39308 10.6837H2.96156V11.5941C2.96156 11.8183 3.1433 12 3.36746 12H10.6069C10.831 12 11.0128 11.8183 11.0128 11.5941V2.38027C11.0128 2.15611 10.831 1.97438 10.6069 1.97438ZM3.08039 4.30031C3.00427 4.37647 2.96152 4.47966 2.96152 4.58734V9.87193H1.79898V0.811795H8.22663V1.97438H5.57452C5.46684 1.97438 5.36365 2.01716 5.28749 2.09325L3.08039 4.30031ZM5.16866 3.36019V4.1814L4.34741 4.18144L5.16866 3.36019ZM10.201 11.1882H3.77336V4.99324L5.57456 4.9932C5.79876 4.9932 5.98046 4.81146 5.98046 4.5873V2.78617H10.201V11.1882Z"/>
        </g>
    </symbol>

</svg>