<svg width="19" height="19" viewBox="0 0 19 19" fill="none" xmlns="http://www.w3.org/2000/svg">
    <path d="M1.78982 5.37174C1.95287 5.45326 2.41484 5.69784 2.91952 5.13105C3.1214 4.84765 3.32327 4.56425 3.56396 4.28474C3.84736 3.96252 3.80465 3.43843 3.48243 3.15503C3.16022 2.87164 2.63613 2.91434 2.35273 3.23656C2.06933 3.55878 1.78594 3.9237 1.54524 4.28474C1.30843 4.64578 1.42878 5.12716 1.78982 5.37174Z" fill="#1C5F9E"/>
    <path d="M9.66664 1.57495C10.4353 1.57495 11.2001 1.6953 11.9299 1.93988C12.4191 2.08352 12.7762 1.77683 12.9393 1.45461C13.0596 1.01204 12.8189 0.565597 12.4152 0.44525C11.5262 0.161854 10.6372 0.00268555 9.70934 0.00268555C9.26678 0.00268555 8.90186 0.324904 8.90186 0.77135C8.90186 1.2178 9.22407 1.57495 9.66664 1.57495Z" fill="#1C5F9E"/>
    <path d="M16.8564 6.50139C17.1398 7.18853 17.2989 7.9145 17.3805 8.64046C17.3805 8.64046 17.427 9.54111 18.2695 9.40912C19.1041 9.30042 18.9954 8.48129 18.9954 8.48129C18.9139 7.59228 18.6732 6.70327 18.351 5.89578C18.1491 5.49204 17.7066 5.29017 17.3028 5.45322C16.8952 5.65509 16.6933 6.09765 16.8564 6.50139Z" fill="#1C5F9E"/>
    <path d="M13.9487 2.94928C14.5932 3.39185 15.1599 3.91982 15.6452 4.52543C16.0063 4.97576 16.6158 4.78942 16.7361 4.64578C17.0583 4.36238 17.1398 3.83829 16.8564 3.51608C16.2897 2.82894 15.6025 2.1845 14.8377 1.65653C14.4728 1.41583 13.9914 1.49348 13.7468 1.8584C13.5023 2.22332 13.5838 2.70471 13.9487 2.94928Z" fill="#1C5F9E"/>
    <path d="M5.22539 2.82495C5.86982 2.4212 6.59967 2.09899 7.32563 1.89711C7.76819 1.77677 8.01277 1.33032 7.89242 0.926578C7.77207 0.484013 7.32563 0.239438 6.92188 0.359784C6.03287 0.600478 5.18656 0.965399 4.4179 1.45067C4.05298 1.69136 3.93263 2.17663 4.17721 2.54155C4.33637 2.78613 4.678 3.02682 5.22539 2.82495Z" fill="#1C5F9E"/>
    <path d="M18.1879 10.4185C17.7453 10.2982 17.3416 10.5816 17.26 11.0241C17.1785 11.3891 16.9301 12.2392 16.9262 12.3208C15.8586 15.0965 13.2964 17.0492 10.3537 17.3637C7.45762 17.6665 4.63918 16.3582 3.0048 14.0056L4.49942 14.3356C4.90317 14.4171 5.34573 14.1726 5.42726 13.73C5.50878 13.3262 5.26421 12.8837 4.82164 12.8022L1.67322 12.115C1.47135 12.0762 0.842443 12.115 0.702686 12.7206L0.0155459 15.9118C-0.0659792 16.3155 0.178596 16.7581 0.621161 16.8396C1.11419 16.8901 1.46747 16.5989 1.5917 16.1952L1.83239 15.1004C3.62982 17.5345 6.8753 19.3358 10.5168 18.9437C14.1893 18.5477 17.3027 16.0748 18.514 12.6042C18.5528 12.5032 18.7353 11.6569 18.7974 11.3502C18.9177 10.9038 18.6343 10.5 18.1879 10.4185Z" fill="#1C5F9E"/>
    <path d="M6.39001 10.2981H10.113C10.5555 10.2981 10.8816 9.93318 10.9205 9.49062V3.97021C10.9205 3.52764 10.5555 3.16272 10.113 3.16272C9.67042 3.16272 9.3055 3.52764 9.3055 3.97021V8.68313H6.39001C5.94744 8.68313 5.58252 9.04805 5.58252 9.49062C5.58252 9.93318 5.94356 10.2981 6.39001 10.2981Z" fill="#1C5F9E"/>
</svg>
